<svg width="72" height="12" viewBox="0 0 72 12" fill="none" xmlns="http://www.w3.org/2000/svg">
<path d="M5.99987 10.0531L3.09151 11.8876C2.96303 11.9732 2.82871 12.0099 2.68855 11.9977C2.54839 11.9855 2.42574 11.9366 2.32062 11.8509C2.2155 11.7653 2.13374 11.6584 2.07534 11.5303C2.01694 11.4016 2.00526 11.2578 2.0403 11.0988L2.81119 7.63157L0.235717 5.30174C0.118915 5.19167 0.0460312 5.06619 0.0170645 4.9253C-0.0123695 4.7849 -0.00372621 4.64743 0.0429944 4.5129C0.0897149 4.37837 0.159796 4.2683 0.253237 4.18269C0.346678 4.09708 0.47516 4.04204 0.638682 4.01758L4.0376 3.70571L5.35162 0.440283C5.41002 0.293522 5.50066 0.183451 5.62353 0.110071C5.74594 0.0366903 5.87139 0 5.99987 0C6.12835 0 6.25403 0.0366903 6.3769 0.110071C6.49931 0.183451 6.58972 0.293522 6.64812 0.440283L7.96213 3.70571L11.3611 4.01758C11.5246 4.04204 11.6531 4.09708 11.7465 4.18269C11.8399 4.2683 11.91 4.37837 11.9567 4.5129C12.0035 4.64743 12.0123 4.7849 11.9834 4.9253C11.9539 5.06619 11.8808 5.19167 11.764 5.30174L9.18855 7.63157L9.95944 11.0988C9.99448 11.2578 9.9828 11.4016 9.9244 11.5303C9.866 11.6584 9.78423 11.7653 9.67911 11.8509C9.57399 11.9366 9.45135 11.9855 9.31119 11.9977C9.17103 12.0099 9.0367 11.9732 8.90822 11.8876L5.99987 10.0531Z" fill="#FFB27A"/>
<path d="M20.9999 10.0531L18.0915 11.8876C17.963 11.9732 17.8287 12.0099 17.6885 11.9977C17.5484 11.9855 17.4257 11.9366 17.3206 11.8509C17.2155 11.7653 17.1337 11.6584 17.0753 11.5303C17.0169 11.4016 17.0053 11.2578 17.0403 11.0988L17.8112 7.63157L15.2357 5.30174C15.1189 5.19167 15.046 5.06619 15.0171 4.9253C14.9876 4.7849 14.9963 4.64743 15.043 4.5129C15.0897 4.37837 15.1598 4.2683 15.2532 4.18269C15.3467 4.09708 15.4752 4.04204 15.6387 4.01758L19.0376 3.70571L20.3516 0.440283C20.41 0.293522 20.5007 0.183451 20.6235 0.110071C20.7459 0.0366903 20.8714 0 20.9999 0C21.1283 0 21.254 0.0366903 21.3769 0.110071C21.4993 0.183451 21.5897 0.293522 21.6481 0.440283L22.9621 3.70571L26.3611 4.01758C26.5246 4.04204 26.6531 4.09708 26.7465 4.18269C26.8399 4.2683 26.91 4.37837 26.9567 4.5129C27.0035 4.64743 27.0123 4.7849 26.9834 4.9253C26.9539 5.06619 26.8808 5.19167 26.764 5.30174L24.1885 7.63157L24.9594 11.0988C24.9945 11.2578 24.9828 11.4016 24.9244 11.5303C24.866 11.6584 24.7842 11.7653 24.6791 11.8509C24.574 11.9366 24.4514 11.9855 24.3112 11.9977C24.171 12.0099 24.0367 11.9732 23.9082 11.8876L20.9999 10.0531Z" fill="#FFB27A"/>
<path d="M35.9999 10.0531L33.0915 11.8876C32.963 11.9732 32.8287 12.0099 32.6885 11.9977C32.5484 11.9855 32.4257 11.9366 32.3206 11.8509C32.2155 11.7653 32.1337 11.6584 32.0753 11.5303C32.0169 11.4016 32.0053 11.2578 32.0403 11.0988L32.8112 7.63157L30.2357 5.30174C30.1189 5.19167 30.046 5.06619 30.0171 4.9253C29.9876 4.7849 29.9963 4.64743 30.043 4.5129C30.0897 4.37837 30.1598 4.2683 30.2532 4.18269C30.3467 4.09708 30.4752 4.04204 30.6387 4.01758L34.0376 3.70571L35.3516 0.440283C35.41 0.293522 35.5007 0.183451 35.6235 0.110071C35.7459 0.0366903 35.8714 0 35.9999 0C36.1283 0 36.254 0.0366903 36.3769 0.110071C36.4993 0.183451 36.5897 0.293522 36.6481 0.440283L37.9621 3.70571L41.3611 4.01758C41.5246 4.04204 41.6531 4.09708 41.7465 4.18269C41.8399 4.2683 41.91 4.37837 41.9567 4.5129C42.0035 4.64743 42.0123 4.7849 41.9834 4.9253C41.9539 5.06619 41.8808 5.19167 41.764 5.30174L39.1885 7.63157L39.9594 11.0988C39.9945 11.2578 39.9828 11.4016 39.9244 11.5303C39.866 11.6584 39.7842 11.7653 39.6791 11.8509C39.574 11.9366 39.4514 11.9855 39.3112 11.9977C39.171 12.0099 39.0367 11.9732 38.9082 11.8876L35.9999 10.0531Z" fill="#FFB27A"/>
<path d="M50.9999 10.0531L48.0915 11.8876C47.963 11.9732 47.8287 12.0099 47.6885 11.9977C47.5484 11.9855 47.4257 11.9366 47.3206 11.8509C47.2155 11.7653 47.1337 11.6584 47.0753 11.5303C47.0169 11.4016 47.0053 11.2578 47.0403 11.0988L47.8112 7.63157L45.2357 5.30174C45.1189 5.19167 45.046 5.06619 45.0171 4.9253C44.9876 4.7849 44.9963 4.64743 45.043 4.5129C45.0897 4.37837 45.1598 4.2683 45.2532 4.18269C45.3467 4.09708 45.4752 4.04204 45.6387 4.01758L49.0376 3.70571L50.3516 0.440283C50.41 0.293522 50.5007 0.183451 50.6235 0.110071C50.7459 0.0366903 50.8714 0 50.9999 0C51.1283 0 51.254 0.0366903 51.3769 0.110071C51.4993 0.183451 51.5897 0.293522 51.6481 0.440283L52.9621 3.70571L56.3611 4.01758C56.5246 4.04204 56.6531 4.09708 56.7465 4.18269C56.8399 4.2683 56.91 4.37837 56.9567 4.5129C57.0035 4.64743 57.0123 4.7849 56.9834 4.9253C56.9539 5.06619 56.8808 5.19167 56.764 5.30174L54.1885 7.63157L54.9594 11.0988C54.9945 11.2578 54.9828 11.4016 54.9244 11.5303C54.866 11.6584 54.7842 11.7653 54.6791 11.8509C54.574 11.9366 54.4514 11.9855 54.3112 11.9977C54.171 12.0099 54.0367 11.9732 53.9082 11.8876L50.9999 10.0531Z" fill="#FFB27A"/>
<path d="M65.9999 10.0531L63.0915 11.8876C62.963 11.9732 62.8287 12.0099 62.6885 11.9977C62.5484 11.9855 62.4257 11.9366 62.3206 11.8509C62.2155 11.7653 62.1337 11.6584 62.0753 11.5303C62.0169 11.4016 62.0053 11.2578 62.0403 11.0988L62.8112 7.63157L60.2357 5.30174C60.1189 5.19167 60.046 5.06619 60.0171 4.9253C59.9876 4.7849 59.9963 4.64743 60.043 4.5129C60.0897 4.37837 60.1598 4.2683 60.2532 4.18269C60.3467 4.09708 60.4752 4.04204 60.6387 4.01758L64.0376 3.70571L65.3516 0.440283C65.41 0.293522 65.5007 0.183451 65.6235 0.110071C65.7459 0.0366903 65.8714 0 65.9999 0C66.1283 0 66.254 0.0366903 66.3769 0.110071C66.4993 0.183451 66.5897 0.293522 66.6481 0.440283L67.9621 3.70571L71.3611 4.01758C71.5246 4.04204 71.6531 4.09708 71.7465 4.18269C71.8399 4.2683 71.91 4.37837 71.9567 4.5129C72.0035 4.64743 72.0123 4.7849 71.9834 4.9253C71.9539 5.06619 71.8808 5.19167 71.764 5.30174L69.1885 7.63157L69.9594 11.0988C69.9945 11.2578 69.9828 11.4016 69.9244 11.5303C69.866 11.6584 69.7842 11.7653 69.6791 11.8509C69.574 11.9366 69.4514 11.9855 69.3112 11.9977C69.171 12.0099 69.0367 11.9732 68.9082 11.8876L65.9999 10.0531Z" fill="#FFB27A"/>
</svg>
