<svg width="103" height="37" viewBox="0 0 103 37" fill="none" xmlns="http://www.w3.org/2000/svg">
<path d="M19.5 31C23.6421 31 27 27.6421 27 23.5C27 19.3579 23.6421 16 19.5 16C15.3579 16 12 19.3579 12 23.5C12 27.6421 15.3579 31 19.5 31Z" fill="url(#paint0_linear_1076_1739)"/>
<path d="M16.8656 19.1451C16.0911 19.1451 14.8209 19.1451 14.8209 20.3755V20.8809C14.8209 21.8916 15.8432 21.8916 16.8656 21.9199L17.756 21.9199C17.4543 23.5406 16.3493 24.7506 14.7564 25.5687C12.312 26.823 7.88333 26.6457 5.5492 23.948C1.26365 18.9938 6.06119 13 6.06119 13C5.81296 13.1738 5.57506 13.3562 5.34579 13.5488C4.39766 14.3463 3.61674 15.3075 3.05131 16.3659C2.47036 17.4549 2.12386 18.6444 2.02732 19.8527C1.93941 20.9741 2.06353 22.1091 2.40141 23.1896C2.7186 24.2053 3.2237 25.1716 3.88739 26.0356C4.55108 26.8997 5.34234 27.6308 6.25772 28.2392C7.1731 28.8476 8.21259 29.3214 9.30553 29.6196C10.4916 29.9417 11.731 30.0525 12.9636 29.9775C14.1962 29.9008 15.4167 29.6298 16.5148 29.1084C17.4284 28.6738 18.2369 28.0722 18.9092 27.3598C19.5143 26.7173 19.7729 26.5043 20.178 25.7442L20.1453 28.4744L20.1602 27.231C20.1602 27.9434 20.1453 29.1084 21.2645 29.1084H22.0766C23 29.1084 23 27.9434 23 27.231V19.1451" fill="url(#paint1_linear_1076_1739)"/>
<path d="M22.4118 12.7984L22.5167 12.6913C22.7282 12.4789 23.7855 11.5206 21.8823 9.60399C19.793 7.49915 14.6942 4.38764 7.93915 6.9915C6.91904 7.38518 3.43917 9.02555 1.39896 12.8208C-1.35854 17.9526 0.745957 22.9686 1.12321 23.8251C2.30234 26.4946 4.13616 28.1712 5.18503 29C4.90928 28.6892 0.128479 23.1361 2.39707 17.1117C3.4138 14.4094 5.41003 12.7846 6.32186 12.1336C6.83953 11.7641 9.88293 9.15332 15.1256 10.4224C17.0203 10.8817 18.465 12.0404 19.2398 12.6896C19.8742 13.2214 20.8639 14.1072 22.4118 12.7967V12.7984Z" fill="url(#paint2_linear_1076_1739)"/>
<path d="M39.6672 7.84194H30.5087V29H35.4053V23.1664H39.6672C45.3194 23.1664 48.8558 20.2345 48.8558 15.5193C48.8558 10.7738 45.3194 7.84194 39.6672 7.84194ZM39.3951 19.1766H35.4053V11.8317H39.3951C42.3875 11.8317 43.8988 13.1919 43.8988 15.5193C43.8988 17.8165 42.3875 19.1766 39.3951 19.1766ZM66.4073 20.9297C66.4073 15.7006 62.7198 12.4967 57.9441 12.4967C52.9871 12.4967 49.2693 16.0029 49.2693 20.8693C49.2693 25.7054 52.9266 29.2418 58.5486 29.2418C61.4805 29.2418 63.7474 28.335 65.2587 26.6122L62.75 23.8918C61.6316 24.9497 60.3924 25.4636 58.6695 25.4636C56.191 25.4636 54.4681 24.2243 54.0147 22.1992H66.3166C66.3469 21.8063 66.4073 21.2924 66.4073 20.9297ZM57.9743 16.0634C60.0901 16.0634 61.6316 17.3933 61.9641 19.4486H53.9543C54.2868 17.3631 55.8283 16.0634 57.9743 16.0634ZM74.1515 12.4967C71.5521 12.4967 68.9224 13.1919 67.1391 14.4614L68.8318 17.756C70.0106 16.819 71.7939 16.2447 73.5168 16.2447C76.0557 16.2447 77.2648 17.4235 77.2648 19.4486H73.5168C68.5597 19.4486 66.5346 21.4435 66.5346 24.315C66.5346 27.126 68.8015 29.2418 72.61 29.2418C74.9978 29.2418 76.6905 28.4559 77.567 26.9749V29H81.98V19.7207C81.98 14.7939 79.1085 12.4967 74.1515 12.4967ZM73.7888 26.0681C72.1264 26.0681 71.1289 25.2822 71.1289 24.1034C71.1289 23.0153 71.8241 22.1992 74.0306 22.1992H77.2648V23.8616C76.7207 25.3427 75.3605 26.0681 73.7888 26.0681ZM96.8567 29H102.569L95.1943 19.63L101.965 12.7385H96.3429L89.4514 19.2673V6.57245H84.7362V29H89.4514V24.8591L91.7184 22.6224L96.8567 29Z" fill="#1C1A33"/>
<defs>
<linearGradient id="paint0_linear_1076_1739" x1="9.61004" y1="20.3129" x2="26.9814" y2="20.3129" gradientUnits="userSpaceOnUse">
<stop stop-color="#2A286E"/>
<stop offset="0.17" stop-color="#2B2970"/>
<stop offset="0.51" stop-color="#3D409D"/>
<stop offset="1" stop-color="#6475FF"/>
</linearGradient>
<linearGradient id="paint1_linear_1076_1739" x1="23.6275" y1="21.2132" x2="1.99974" y2="21.2132" gradientUnits="userSpaceOnUse">
<stop offset="0.2" stop-color="white"/>
<stop offset="0.64" stop-color="#FF8540"/>
</linearGradient>
<linearGradient id="paint2_linear_1076_1739" x1="22.1614" y1="17.5019" x2="-0.839185" y2="17.5019" gradientUnits="userSpaceOnUse">
<stop stop-color="#6374FF"/>
<stop offset="1" stop-color="#201A55"/>
</linearGradient>
</defs>
</svg>
