<svg width="104" height="37" viewBox="0 0 104 37" fill="none" xmlns="http://www.w3.org/2000/svg">
<path d="M19.6785 30.9464C23.7321 30.9464 27.0182 27.6604 27.0182 23.6068C27.0182 19.5532 23.7321 16.2671 19.6785 16.2671C15.625 16.2671 12.3389 19.5532 12.3389 23.6068C12.3389 27.6604 15.625 30.9464 19.6785 30.9464Z" fill="#6374FF"/>
<path d="M17 19.3367C16.2425 19.3367 15 19.3367 15 20.554V21.054C15 22.054 16 22.054 17 22.082L17.8708 22.082C17.5758 23.6855 16.495 24.8826 14.937 25.692C12.5461 26.933 8.21443 26.7576 5.93143 24.0885C1.73974 19.1869 6.4322 13.2568 6.4322 13.2568C6.1894 13.4288 5.95672 13.6092 5.73247 13.7998C4.8051 14.5889 4.04129 15.5398 3.48824 16.5869C2.92002 17.6644 2.58111 18.8413 2.48669 20.0367C2.4007 21.1462 2.5221 22.2691 2.85258 23.3381C3.16282 24.3431 3.65685 25.2991 4.30601 26.154C4.95516 27.0088 5.72909 27.7322 6.62442 28.3341C7.51975 28.9361 8.53648 29.4048 9.60548 29.6999C10.7655 30.0185 11.9778 30.1281 13.1834 30.054C14.389 29.9781 15.5828 29.71 16.6568 29.194C17.5505 28.7641 18.3413 28.1689 18.9988 27.4641C19.5907 26.8284 19.8436 26.6176 20.2398 25.8656L20.2078 28.5668L20.2224 27.3367C20.2224 28.0415 20.2078 29.194 21.3025 29.194H22.0968C23 29.194 23 28.0415 23 27.3367V19.3367" fill="url(#paint0_linear_1183_2698)"/>
<path d="M22.3376 12.6923L22.4421 12.5878C22.6529 12.3804 23.7067 11.4446 21.8099 9.573C19.7275 7.51762 14.6455 4.47924 7.91286 7.02191C6.89613 7.40634 3.42779 9.00815 1.39433 12.7142C-1.35404 17.7254 0.743487 22.6236 1.11949 23.4599C2.29472 26.0666 4.12247 27.7038 5.16786 28.5132C4.89302 28.2097 0.128054 22.7871 2.38914 16.9042C3.4025 14.2655 5.39212 12.6788 6.30093 12.0432C6.81688 11.6823 9.85021 9.13293 15.0755 10.3722C16.9639 10.8207 18.4039 11.9521 19.1761 12.5861C19.8084 13.1054 20.7948 13.9704 22.3376 12.6906V12.6923Z" fill="#6374FF"/>
<path d="M39.6852 7.84194H30.5268V29H35.4234V23.1664H39.6852C45.3375 23.1664 48.8739 20.2345 48.8739 15.5193C48.8739 10.7738 45.3375 7.84194 39.6852 7.84194ZM39.4132 19.1766H35.4234V11.8317H39.4132C42.4055 11.8317 43.9168 13.1919 43.9168 15.5193C43.9168 17.8165 42.4055 19.1766 39.4132 19.1766ZM66.4254 20.9297C66.4254 15.7006 62.7378 12.4967 57.9622 12.4967C53.0051 12.4967 49.2874 16.0029 49.2874 20.8693C49.2874 25.7054 52.9447 29.2418 58.5667 29.2418C61.4986 29.2418 63.7655 28.335 65.2768 26.6122L62.7681 23.8918C61.6497 24.9497 60.4104 25.4636 58.6876 25.4636C56.2091 25.4636 54.4862 24.2243 54.0328 22.1992H66.3347C66.3649 21.8063 66.4254 21.2924 66.4254 20.9297ZM57.9924 16.0634C60.1082 16.0634 61.6497 17.3933 61.9822 19.4486H53.9724C54.3048 17.3631 55.8464 16.0634 57.9924 16.0634ZM74.1696 12.4967C71.5701 12.4967 68.9405 13.1919 67.1572 14.4614L68.8498 17.756C70.0286 16.819 71.812 16.2447 73.5348 16.2447C76.0738 16.2447 77.2828 17.4235 77.2828 19.4486H73.5348C68.5778 19.4486 66.5527 21.4435 66.5527 24.315C66.5527 27.126 68.8196 29.2418 72.628 29.2418C75.0159 29.2418 76.7085 28.4559 77.5851 26.9749V29H81.998V19.7207C81.998 14.7939 79.1266 12.4967 74.1696 12.4967ZM73.8069 26.0681C72.1444 26.0681 71.147 25.2822 71.147 24.1034C71.147 23.0153 71.8422 22.1992 74.0487 22.1992H77.2828V23.8616C76.7388 25.3427 75.3786 26.0681 73.8069 26.0681ZM96.8748 29H102.587L95.2124 19.63L101.983 12.7385H96.361L89.4695 19.2673V6.57245H84.7543V29H89.4695V24.8591L91.7364 22.6224L96.8748 29Z" fill="white"/>
<defs>
<linearGradient id="paint0_linear_1183_2698" x1="23.6138" y1="21.3828" x2="2.45971" y2="21.3828" gradientUnits="userSpaceOnUse">
<stop offset="0.2" stop-color="white"/>
<stop offset="0.64" stop-color="#FF8540"/>
</linearGradient>
</defs>
</svg>
