<svg width="40" height="44" viewBox="0 0 40 44" fill="none" xmlns="http://www.w3.org/2000/svg">
<path fill-rule="evenodd" clip-rule="evenodd" d="M26.6164 40.897C30.4359 39.8252 34.4347 39.2845 38.3139 38.7891C39.1494 38.6853 39.9251 39.2648 39.9848 40.0812C40.1041 40.8982 39.507 41.6454 38.7311 41.7492C34.9714 42.2261 31.0926 42.7363 27.4521 43.7682C26.6763 43.992 25.8405 43.5312 25.6017 42.7387C25.363 41.9468 25.8406 41.1214 26.6164 40.897Z" fill="#6374FF"/>
<path fill-rule="evenodd" clip-rule="evenodd" d="M15.0396 25.701C21.1865 19.4281 28.1093 13.9627 34.1369 7.52151C34.674 6.91994 35.6289 6.88771 36.2257 7.44929C36.8225 8.01147 36.8819 8.95679 36.2851 9.55835C30.2575 16.018 23.3347 21.5013 17.1878 27.7927C16.591 28.38 15.6364 28.3883 15.0396 27.8106C14.5025 27.2335 14.4428 26.2882 15.0396 25.701Z" fill="#6374FF"/>
<path fill-rule="evenodd" clip-rule="evenodd" d="M3.52064 1.573C3.3416 5.1633 3.16291 8.75359 2.98388 12.3445C2.98388 13.1669 2.26738 13.8019 1.43187 13.7619C0.59636 13.7213 -8.13007e-05 13.0213 -8.13007e-05 12.1983C0.178956 8.60201 0.357644 5.00634 0.536681 1.41067C0.59636 0.588292 1.31263 -0.0425173 2.14814 0.00224204C2.92396 0.0470014 3.58032 0.751218 3.52064 1.573Z" fill="#6374FF"/>
</svg>
