<svg width="24" height="24" viewBox="0 0 24 24" fill="none" xmlns="http://www.w3.org/2000/svg">
<path d="M15.5001 15.4998L19.0001 18.9998M5.00012 10.9998C5.00012 11.7877 5.15532 12.5679 5.45684 13.2959C5.75837 14.0238 6.20033 14.6852 6.75748 15.2424C7.31463 15.7995 7.97607 16.2415 8.70402 16.543C9.43198 16.8446 10.2122 16.9998 11.0001 16.9998C11.7881 16.9998 12.5683 16.8446 13.2962 16.543C14.0242 16.2415 14.6856 15.7995 15.2428 15.2424C15.7999 14.6852 16.2419 14.0238 16.5434 13.2959C16.8449 12.5679 17.0001 11.7877 17.0001 10.9998C17.0001 9.40846 16.368 7.88233 15.2428 6.75712C14.1175 5.6319 12.5914 4.99976 11.0001 4.99976C9.40882 4.99976 7.8827 5.6319 6.75748 6.75712C5.63226 7.88233 5.00012 9.40846 5.00012 10.9998Z" stroke="#1C1A33" stroke-width="1.5" stroke-linecap="round" stroke-linejoin="round"/>
</svg>
