<svg width="28" height="28" viewBox="0 0 28 28" fill="none" xmlns="http://www.w3.org/2000/svg">
<g clip-path="url(#clip0_1076_5055)">
<path fill-rule="evenodd" clip-rule="evenodd" d="M3.56547 12.3844C4.8147 11.9392 6.12928 11.3476 7.14303 10.4911C8.34703 9.47379 8.83668 8.16356 9.1655 6.78438C9.58766 5.01248 9.75634 3.12497 10.2682 1.3502C10.4578 0.691123 10.8225 0.441991 10.979 0.331427C11.3746 0.0521445 11.7745 -0.0225074 12.1507 0.0054926C12.5965 0.0378003 13.209 0.206507 13.6118 0.953891C13.6692 1.06087 13.7438 1.22385 13.7941 1.44713C13.8307 1.61082 13.8544 2.12271 13.8932 2.33379C13.9901 2.85358 14.0712 3.37339 14.1473 3.89606C14.4008 5.63565 14.5465 7.11317 15.347 8.71132C16.4333 10.881 17.5217 12.2085 18.9978 12.7965C20.4251 13.3651 22.1316 13.2581 24.3121 12.8123C24.5195 12.762 24.7249 12.7189 24.928 12.6837C25.8894 12.5157 26.8084 13.1468 26.9972 14.1046C27.186 15.0616 26.575 15.9942 25.6223 16.2046C25.4234 16.2484 25.2274 16.29 25.0336 16.328C22.0871 17.0575 18.6761 19.6608 16.6939 21.9403C16.0829 22.6431 15.1884 24.6081 14.2758 25.8617C13.6024 26.7864 12.8457 27.3959 12.2103 27.6113C11.7846 27.7564 11.4256 27.7341 11.1291 27.6609C10.6983 27.5546 10.3408 27.3213 10.0665 26.9501C9.9172 26.7469 9.7786 26.4748 9.71255 26.1273C9.68096 25.96 9.67739 25.535 9.67811 25.3426C9.49216 24.7029 9.26457 24.0783 9.09872 23.4329C8.70313 21.8929 7.92702 20.9179 7.00517 19.6299C6.14291 18.4245 5.21679 17.667 3.85915 17.0625C3.68253 17.0194 2.2574 16.6705 1.75412 16.4702C1.01894 16.1766 0.668561 15.6848 0.541484 15.4198C0.325381 14.9704 0.303144 14.5777 0.346221 14.2503C0.410119 13.7671 0.626941 13.3536 1.01176 13.0198C1.25012 12.8123 1.60623 12.6105 2.08294 12.5121C2.45125 12.4353 3.42834 12.3908 3.56547 12.3844ZM11.926 9.8744C11.992 10.0216 12.0624 10.1695 12.1371 10.3188C13.728 13.4965 15.5071 15.2705 17.6696 16.1313L17.7421 16.1593C16.2954 17.2334 14.9859 18.4338 13.9851 19.5847C13.573 20.0585 13.0273 21.0428 12.4379 22.0523C11.9023 20.3112 11.0264 19.0807 9.92508 17.5407C9.08364 16.3654 8.202 15.4809 7.11862 14.7601C7.95934 14.3286 8.76128 13.8231 9.45984 13.233C10.6229 12.2501 11.3918 11.1114 11.926 9.8744Z" fill="#6374FF"/>
</g>
<defs>
<clipPath id="clip0_1076_5055">
<rect width="28" height="28" fill="white"/>
</clipPath>
</defs>
</svg>
