<svg  viewBox="0 0 221 149" fill="none" xmlns="http://www.w3.org/2000/svg">
<rect width="100%" height="100%" viewBox="0 0 221 149" rx="12" fill="url(#paint0_linear_1136_526)"/>
<path d="M145 77.5001C145 85.1148 142.742 92.5581 138.511 98.8897C134.281 105.221 128.268 110.156 121.233 113.069C114.198 115.984 106.457 116.745 98.9888 115.26C91.5204 113.775 84.6607 110.108 79.2762 104.724C73.8917 99.3393 70.2253 92.4796 68.7395 85.0112C67.2545 77.5428 68.0165 69.8016 70.9308 62.7668C73.8444 55.7319 78.7794 49.7188 85.1103 45.4886C91.4419 41.2583 98.8851 39 106.5 39" stroke="white" stroke-width="13.0885" stroke-miterlimit="10"/>
<path d="M113 32C123.078 32 132.743 36.0038 139.871 43.13C146.997 50.2563 151 59.9213 151 70" stroke="#A8A2EA" stroke-width="13.0885" stroke-miterlimit="10"/>
<path d="M16 116H38" stroke="white" stroke-width="5.12" stroke-miterlimit="10" stroke-linecap="round"/>
<path opacity="0.4" d="M16 129H62" stroke="white" stroke-width="5.12" stroke-miterlimit="10" stroke-linecap="round"/>
<path d="M159 116H181" stroke="white" stroke-width="5.12" stroke-miterlimit="10" stroke-linecap="round"/>
<path opacity="0.4" d="M159 129H205" stroke="white" stroke-width="5.12" stroke-miterlimit="10" stroke-linecap="round"/>
<path d="M33.7288 22.9608C31.4813 19.9716 26.4753 19.0962 23.1262 21.6948L21.095 23.2708C17.7293 25.8823 17.0184 30.6845 19.5076 33.9952C21.6523 36.8476 25.4736 37.6623 28.643 36.1623C29.1624 35.9163 29.6541 35.6137 30.1094 35.26" stroke="white" stroke-width="2.18159" stroke-linecap="round" stroke-linejoin="round"/>
<path d="M29.5077 26.9952C31.7543 29.9832 36.7603 30.8586 40.1094 28.26L42.1406 26.6839C45.5063 24.0725 46.2181 19.2715 43.7288 15.9608C41.5832 13.1071 37.7611 12.2913 34.5926 13.7925C34.0732 14.0385 33.5816 14.3411 33.1262 14.6948" stroke="white" stroke-width="2.18159" stroke-linecap="round" stroke-linejoin="round"/>
<path d="M101.248 76H96.9449V64.8151H101.205C102.355 64.8151 103.349 65.039 104.187 65.4869C105.028 65.931 105.676 66.5718 106.131 67.4093C106.59 68.243 106.819 69.2425 106.819 70.4076C106.819 71.5726 106.592 72.5739 106.136 73.4113C105.681 74.2451 105.037 74.8859 104.203 75.3337C103.369 75.7779 102.384 76 101.248 76ZM99.9815 73.4222H101.139C101.693 73.4222 102.164 73.333 102.554 73.1546C102.947 72.9762 103.246 72.6686 103.449 72.2317C103.657 71.7947 103.761 71.1867 103.761 70.4076C103.761 69.6284 103.655 69.0204 103.444 68.5835C103.236 68.1465 102.931 67.8389 102.526 67.6605C102.126 67.4821 101.634 67.3929 101.052 67.3929H99.9815V73.4222ZM108.224 76V64.8151H113.052C113.882 64.8151 114.608 64.9662 115.231 65.2684C115.854 65.5706 116.338 66.0057 116.684 66.5737C117.03 67.1417 117.203 67.8225 117.203 68.6162C117.203 69.4172 117.024 70.0926 116.667 70.6424C116.314 71.1922 115.817 71.6072 115.176 71.8876C114.539 72.1679 113.795 72.3081 112.943 72.3081H110.059V69.9488H112.331C112.688 69.9488 112.992 69.9051 113.243 69.8177C113.498 69.7267 113.693 69.5829 113.827 69.3863C113.966 69.1897 114.035 68.933 114.035 68.6162C114.035 68.2958 113.966 68.0355 113.827 67.8352C113.693 67.6314 113.498 67.4821 113.243 67.3874C112.992 67.2891 112.688 67.24 112.331 67.24H111.261V76H108.224ZM114.778 70.8663L117.574 76H114.275L111.545 70.8663H114.778Z" fill="white"/>
<path d="M102.989 80.9139C103.275 80.9161 103.562 80.9708 103.849 81.0777C104.135 81.1847 104.397 81.3622 104.634 81.6102C104.87 81.856 105.06 82.1916 105.204 82.6171C105.347 83.0427 105.419 83.5763 105.419 84.218C105.419 84.8392 105.36 85.3911 105.241 85.8735C105.125 86.3536 104.957 86.7587 104.736 87.0886C104.518 87.4186 104.252 87.6689 103.937 87.8396C103.626 88.0102 103.273 88.0956 102.879 88.0956C102.488 88.0956 102.139 88.0182 101.831 87.8635C101.527 87.7065 101.276 87.4891 101.08 87.2115C100.887 86.9316 100.763 86.6073 100.708 86.2387H101.541C101.616 86.5596 101.765 86.8247 101.988 87.034C102.214 87.2411 102.511 87.3446 102.879 87.3446C103.419 87.3446 103.844 87.1091 104.156 86.6381C104.47 86.167 104.627 85.5014 104.627 84.6413H104.572C104.445 84.8324 104.294 84.9974 104.118 85.1362C103.943 85.275 103.749 85.382 103.535 85.457C103.321 85.5321 103.093 85.5697 102.852 85.5697C102.452 85.5697 102.084 85.4707 101.75 85.2727C101.417 85.0725 101.151 84.7983 100.951 84.4501C100.753 84.0997 100.654 83.6992 100.654 83.2486C100.654 82.8208 100.749 82.4294 100.941 82.0744C101.134 81.7171 101.405 81.4327 101.753 81.2211C102.103 81.0094 102.515 80.907 102.989 80.9139ZM102.989 81.6648C102.702 81.6648 102.444 81.7365 102.214 81.8798C101.986 82.0209 101.805 82.2121 101.671 82.4533C101.539 82.6922 101.473 82.9573 101.473 83.2486C101.473 83.5399 101.537 83.805 101.664 84.0439C101.794 84.2806 101.97 84.4694 102.193 84.6105C102.419 84.7493 102.675 84.8187 102.961 84.8187C103.177 84.8187 103.379 84.7767 103.565 84.6925C103.752 84.606 103.915 84.4888 104.054 84.3409C104.195 84.1907 104.305 84.0212 104.385 83.8323C104.464 83.6411 104.504 83.442 104.504 83.235C104.504 82.9619 104.438 82.7059 104.306 82.4669C104.176 82.228 103.997 82.0346 103.767 81.8867C103.539 81.7388 103.28 81.6648 102.989 81.6648ZM109 88.0956C108.532 88.0956 108.117 88.0125 107.758 87.8464C107.401 87.678 107.122 87.447 106.922 87.1535C106.721 86.8577 106.622 86.5209 106.625 86.1431C106.622 85.8473 106.68 85.5742 106.799 85.3239C106.917 85.0713 107.079 84.8608 107.283 84.6925C107.491 84.5218 107.721 84.4137 107.976 84.3682V84.3272C107.642 84.2408 107.376 84.053 107.178 83.764C106.98 83.4727 106.882 83.1417 106.884 82.7707C106.882 82.4157 106.972 82.0983 107.154 81.8184C107.336 81.5385 107.586 81.3178 107.905 81.1562C108.226 80.9947 108.591 80.9139 109 80.9139C109.405 80.9139 109.767 80.9947 110.086 81.1562C110.404 81.3178 110.655 81.5385 110.837 81.8184C111.021 82.0983 111.114 82.4157 111.117 82.7707C111.114 83.1417 111.013 83.4727 110.813 83.764C110.615 84.053 110.352 84.2408 110.024 84.3272V84.3682C110.277 84.4137 110.504 84.5218 110.707 84.6925C110.91 84.8608 111.071 85.0713 111.192 85.3239C111.312 85.5742 111.374 85.8473 111.376 86.1431C111.374 86.5209 111.271 86.8577 111.069 87.1535C110.869 87.447 110.59 87.678 110.233 87.8464C109.878 88.0125 109.467 88.0956 109 88.0956ZM109 87.3446C109.317 87.3446 109.59 87.2934 109.82 87.191C110.049 87.0886 110.227 86.9441 110.352 86.7575C110.477 86.5709 110.541 86.3525 110.543 86.1022C110.541 85.8382 110.473 85.605 110.338 85.4024C110.204 85.1999 110.021 85.0406 109.789 84.9246C109.559 84.8085 109.296 84.7505 109 84.7505C108.702 84.7505 108.436 84.8085 108.202 84.9246C107.97 85.0406 107.786 85.1999 107.652 85.4024C107.52 85.605 107.455 85.8382 107.458 86.1022C107.455 86.3525 107.516 86.5709 107.638 86.7575C107.764 86.9441 107.942 87.0886 108.174 87.191C108.406 87.2934 108.682 87.3446 109 87.3446ZM109 84.0269C109.251 84.0269 109.473 83.9768 109.666 83.8767C109.862 83.7765 110.015 83.6366 110.127 83.4568C110.238 83.277 110.295 83.0666 110.297 82.8253C110.295 82.5887 110.239 82.3827 110.13 82.2075C110.021 82.03 109.87 81.8935 109.676 81.7979C109.483 81.7001 109.257 81.6512 109 81.6512C108.739 81.6512 108.51 81.7001 108.314 81.7979C108.119 81.8935 107.967 82.03 107.86 82.2075C107.753 82.3827 107.701 82.5887 107.703 82.8253C107.701 83.0666 107.754 83.277 107.864 83.4568C107.975 83.6366 108.129 83.7765 108.324 83.8767C108.52 83.9768 108.745 84.0269 109 84.0269Z" fill="white" fill-opacity="0.53"/>
<defs>
<linearGradient id="paint0_linear_1136_526" x1="110" y1="-8.5" x2="110" y2="163.5" gradientUnits="userSpaceOnUse">
<stop stop-color="#FDB581"/>
<stop offset="1" stop-color="#FFDABF"/>
</linearGradient>
</defs>
</svg>
