<svg width="140" height="140" viewBox="0 0 140 140" fill="none" xmlns="http://www.w3.org/2000/svg">
<g clip-path="url(#clip0_1076_1922)">
<g clip-path="url(#clip1_1076_1922)">
<path fill-rule="evenodd" clip-rule="evenodd" d="M78.7573 86.2001C79.7745 89.244 81.8856 91.538 85.3859 92.633C96.2141 96.0199 105.944 90.3849 113.878 80.9554C125.463 67.1864 133.146 45.2223 134.687 32.566C134.76 31.9666 134.362 31.5213 133.8 31.5703C133.237 31.6178 132.72 32.1421 132.647 32.7416C131.152 45.0256 123.715 66.3476 112.472 79.7113C105.187 88.3693 96.2711 93.6443 86.3263 90.532C83.3654 89.6081 81.5914 87.6644 80.7245 85.0945C82.4583 84.0996 84.1525 83.0707 85.8034 82.0087C90.3602 79.0762 101.136 69.5017 106.635 60.6091C110.577 54.2294 111.807 48.2078 107.039 44.8108C104.388 42.9234 100.989 43.4983 97.4111 45.8116C92.4914 48.9893 87.1896 55.565 83.3872 62.8412C80.2205 68.8987 78.0934 75.4279 78.0164 80.8406C78.0018 82.0297 78.08 83.1676 78.2673 84.2367C54.0651 97.5976 23.2767 103.862 0.351849 98.9125C-0.171298 98.8019 -0.774306 99.186 -0.99389 99.7777C-1.21536 100.368 -0.9686 100.938 -0.447234 101.051C22.8523 106.079 54.1225 99.7493 78.7573 86.2001ZM80.2508 83.1175C81.8789 82.179 83.4712 81.2093 85.024 80.2096C89.3901 77.3981 99.7128 68.2259 104.981 59.7055C108.214 54.4769 109.571 49.4785 105.663 46.6942C103.61 45.2334 100.965 45.818 98.194 47.6061C95.1467 49.5762 91.967 52.9676 89.13 57.0061C84.8229 63.1374 81.3133 70.7631 80.3383 77.3127C80.0284 79.3876 79.9779 81.3532 80.2508 83.1175Z" fill="#1C1A33"/>
<path fill-rule="evenodd" clip-rule="evenodd" d="M36.421 78.9192C26.6695 88.5745 12.1526 95.6988 -0.108955 98.945C-0.672851 99.0942 -1.10594 99.6847 -1.07589 100.262C-1.04584 100.839 -0.56456 101.188 -0.000662698 101.039C12.6441 97.6927 27.6002 90.3056 37.6536 80.3524C38.1039 79.9072 38.1939 79.2235 37.8528 78.8273C37.5137 78.4325 36.8712 78.474 36.421 78.9192Z" fill="#1C1A33"/>
<path fill-rule="evenodd" clip-rule="evenodd" d="M0.501681 101.669C10.5074 101.845 20.8302 108.696 26.1679 116.555C26.4637 116.991 27.1046 116.995 27.5969 116.56C28.091 116.127 28.2515 115.423 27.9556 114.987C22.3636 106.755 11.5171 99.6299 1.03443 99.4448C0.479174 99.4337 -0.0928654 99.9262 -0.240965 100.54C-0.387192 101.155 -0.0554224 101.66 0.501681 101.669Z" fill="#1C1A33"/>
</g>
</g>
<defs>
<clipPath id="clip0_1076_1922">
<rect width="140" height="140" fill="white"/>
</clipPath>
<clipPath id="clip1_1076_1922">
<rect width="110" height="137" fill="white" transform="translate(74 158) rotate(-142.631)"/>
</clipPath>
</defs>
</svg>
