<svg  viewBox="0 0 213 75" fill="none" xmlns="http://www.w3.org/2000/svg">
<rect x="1" y="1" width="211" height="73" rx="15.7593" fill="url(#paint0_linear_1076_1849)" stroke="#6374FF" stroke-width="1.00942" stroke-dasharray="5.05 5.05"/>
<ellipse cx="40" cy="38.5" rx="21" ry="21.5" fill="#B4ADFF"/>
<path d="M27 43L32.684 36.9847C33.0554 36.5912 33.5596 36.3706 34.0849 36.3706C34.6103 36.3706 35.1144 36.5912 35.4862 36.9847L39.9314 41.6894C40.3032 42.0824 40.8074 42.3035 41.3327 42.3035C41.8581 42.3035 42.3622 42.0824 42.734 41.6894L50 34" stroke="white" stroke-width="2.26685" stroke-miterlimit="10" stroke-linecap="round"/>
<path d="M46 33H50.2717C50.465 33 50.6499 33.0668 50.7866 33.1858C50.9232 33.3048 51 33.4658 51 33.6341V37" stroke="white" stroke-width="2.26685" stroke-miterlimit="10" stroke-linecap="round"/>
<path d="M103.921 31H83.0795C82.2628 31 81.4795 30.6839 80.902 30.1213C80.3244 29.5587 80 28.7957 80 28C80 27.2044 80.3244 26.4413 80.902 25.8787C81.4795 25.3161 82.2628 25 83.0795 25H103.921C104.737 25 105.521 25.3161 106.098 25.8787C106.676 26.4413 107 27.2044 107 28C107 28.7957 106.676 29.5587 106.098 30.1213C105.521 30.6839 104.737 31 103.921 31Z" fill="#6C63FF"/>
<path d="M175.929 50H83.0706C82.2562 50 81.4752 49.6839 80.8993 49.1213C80.3235 48.5587 80 47.7956 80 47C80 46.2043 80.3235 45.4413 80.8993 44.8787C81.4752 44.3161 82.2562 44 83.0706 44H175.929C176.744 44 177.525 44.3161 178.101 44.8787C178.676 45.4413 179 46.2043 179 47C179 47.7956 178.676 48.5587 178.101 49.1213C177.525 49.6839 176.744 50 175.929 50Z" fill="#ECEEFF"/>
<defs>
<linearGradient id="paint0_linear_1076_1849" x1="106.5" y1="1" x2="115.335" y2="182.617" gradientUnits="userSpaceOnUse">
<stop stop-color="#FDFDFF"/>
<stop offset="1" stop-color="#FDFDFF" stop-opacity="0"/>
</linearGradient>
</defs>
</svg>
