<svg viewBox="0 0 210 116" fill="none" xmlns="http://www.w3.org/2000/svg">
<path d="M197.972 0H12.0287C5.38508 0 0 5.38699 0 12.0316V103.968C0 110.613 5.38508 116 12.0287 116H197.972C204.615 116 210 110.613 210 103.968V12.0316C210 5.38699 204.615 0 197.972 0Z" fill="url(#paint0_linear_1076_1842)"/>
<path d="M17 84.301C17 84.301 30.95 82.8482 39.3378 89.0572C50.5871 97.3835 59.6465 103.811 71.6054 83.3453C84.7072 60.9241 86.7666 53.0923 96.3243 53.0003C108.591 52.8821 113.381 85.2148 136 87.4996C158.62 89.7845 174 86.1291 174 86.1291" stroke="#8794FF" stroke-width="3.87097" stroke-miterlimit="10" stroke-linecap="round"/>
<path d="M17 19H49" stroke="#5661AE" stroke-width="4.83871" stroke-miterlimit="10" stroke-linecap="round"/>
<path d="M17 34H84" stroke="#ECEEFF" stroke-width="4.83871" stroke-miterlimit="10" stroke-linecap="round"/>
<path d="M187.5 28.5L192 33M174 22.7143C174 23.7273 174.2 24.7305 174.587 25.6664C174.975 26.6024 175.543 27.4528 176.259 28.1691C176.976 28.8854 177.826 29.4537 178.762 29.8414C179.698 30.229 180.701 30.4286 181.714 30.4286C182.727 30.4286 183.73 30.229 184.666 29.8414C185.602 29.4537 186.453 28.8854 187.169 28.1691C187.885 27.4528 188.454 26.6024 188.841 25.6664C189.229 24.7305 189.429 23.7273 189.429 22.7143C189.429 20.6683 188.616 18.7062 187.169 17.2595C185.722 15.8128 183.76 15 181.714 15C179.668 15 177.706 15.8128 176.259 17.2595C174.813 18.7062 174 20.6683 174 22.7143Z" stroke="#C9D0E6" stroke-width="1.93548" stroke-linecap="round" stroke-linejoin="round"/>
<defs>
<linearGradient id="paint0_linear_1076_1842" x1="105.484" y1="-1.80613e-07" x2="105.484" y2="159.716" gradientUnits="userSpaceOnUse">
<stop stop-color="white"/>
<stop offset="1" stop-color="#F2F0F0"/>
</linearGradient>
</defs>
</svg>
