<svg width="40" height="40" viewBox="0 0 40 40" fill="none" xmlns="http://www.w3.org/2000/svg">
<path fill-rule="evenodd" clip-rule="evenodd" d="M24.771 7.80742C24.8769 7.17748 24.9566 6.55468 25.0082 5.93182C25.0858 4.99753 25.0378 4.05609 25.0653 3.12179C25.0773 2.72543 25.1246 1.69205 25.1056 1.54342C24.9326 0.248143 23.8901 0.0499353 23.5852 0.0145453C23.4376 -0.00668865 21.9229 -0.176484 21.5961 1.50808C21.1952 3.56777 21.0667 5.6416 21.2086 7.67298C20.8775 9.40001 20.3114 11.1199 19.5639 12.6771C16.5894 18.8703 10.9215 19.472 4.78053 19.4153C3.83609 19.4012 3.05186 20.1444 3.00245 21.0857C2.95304 22.0342 3.65607 22.8552 4.59627 22.9402C8.02883 23.2728 14.119 26.0333 16.2245 28.9069C16.665 29.5086 16.9212 30.9596 17.26 32.3823C17.7329 34.357 18.2955 36.3105 18.9258 37.1316C19.0204 37.259 20.1703 38.5613 20.5133 38.7525C21.3377 39.2054 21.9977 38.9435 22.3725 38.7029C22.7473 38.4622 23.1715 37.988 23.3409 37.2023C23.5181 36.3813 23.3685 34.6967 23.396 34.3357C23.4962 33.0263 23.7574 30.457 24.2903 28.2487C24.5776 27.0596 24.8839 25.9625 25.3907 25.4175C27.2669 23.4002 30.2668 23.6975 32.793 24.0302C33.0831 24.0656 33.3732 24.1081 33.6626 24.1435C34.6911 24.4478 35.783 24.6743 36.9371 24.8088C38.6799 25.014 38.9664 23.4073 38.982 23.3011C39.0144 23.0676 39.1351 21.8643 37.8215 21.383C37.6783 21.3335 36.6209 21.0999 36.2136 21.0079C35.6461 20.8805 35.0722 20.7814 34.4963 20.6894C28.5466 18.835 25.3152 13.6255 24.771 7.80742ZM22.729 14.2414C20.4829 18.8987 17.0744 21.1495 13.0341 22.1687H13.0348C15.5575 23.4923 17.8522 25.1486 19.0684 26.8119C19.5301 27.4418 19.9536 28.7087 20.3354 30.1314C20.5422 28.8078 20.8217 27.3993 21.1909 26.196C21.6109 24.8229 22.1763 23.6834 22.8073 23.0039C24.0256 21.6945 25.5545 20.9655 27.1985 20.6045C25.2305 18.8562 23.7383 16.6762 22.729 14.2414Z" fill="#1C1A33"/>
</svg>
