<svg width="135" height="48" viewBox="0 0 135 48" fill="none" xmlns="http://www.w3.org/2000/svg">
<g clip-path="url(#clip0_1173_800)">
<g clip-path="url(#clip1_1173_800)">
<path d="M29.0758 32.2747L27.8424 29.6573H19.5321L18.2987 32.2747H13.03V31.5018L22.5127 11.1899H24.8301L34.3433 31.5018V32.2747H29.0747H29.0758ZM26.0952 25.1072L23.6567 19.636L21.2792 25.1072H26.0952ZM47.318 20.4383L39.0699 11.397H37.0829V32.2747H42.5925V22.9957L47.0476 27.6352H47.6496L52.1351 22.9957V32.2747H57.6437V11.397H55.7177L47.318 20.4383ZM77.753 11.457H61.7977V16.2153H69.6248L61.0158 31.4712V32.2747H75.01L77.8435 27.5164H69.1133L77.753 12.2604V11.457Z" fill="#C9C9CD"/>
<path d="M108.213 14.4797L105.727 3.36084L89.7714 8.30584L95.2143 11.2604L83.2422 32.5499H93.5237L100.181 20.5857L95.9385 18.283L108.213 14.4797Z" fill="#C9C9CD"/>
<path d="M108.243 14.5269L118.954 11.208L122.425 26.7287L117.161 23.8715L112.295 32.553H100.803L100.805 32.5496H102.327L106.823 24.297L110.925 26.5239L108.243 14.5269ZM63.1234 42.6331H60.4483C60.3872 47.3405 69.2045 47.2182 69.2045 42.7247C69.2045 40.0508 67.0997 39.7759 64.9497 39.5461C63.9766 39.4398 63.1709 39.2712 63.2331 38.461C63.3259 37.1936 66.2341 37.0702 66.2341 38.4915H68.8639C68.9261 33.8769 60.5106 33.8769 60.6033 38.4915C60.6339 40.8146 62.1819 41.609 64.5333 41.7776C65.6151 41.8387 66.5136 41.9609 66.5136 42.71C66.5136 43.9627 63.1234 43.9932 63.1234 42.6331ZM70.4017 40.5555C70.4175 44.1924 73.2023 46.0267 75.9555 46.0109C78.2605 46.0109 80.6889 44.8193 81.0917 41.7935H78.3691C78.0749 42.9386 77.1312 43.5202 75.9555 43.5202C74.3158 43.5044 73.2634 42.1284 73.2634 40.5555C73.2634 38.7823 74.3317 37.5749 75.9566 37.5749C77.1153 37.5749 77.9357 38.0638 78.3216 39.149H81.0453C80.6266 36.2917 78.1983 35.0843 75.9555 35.0843C73.2023 35.0843 70.4175 36.9175 70.4017 40.5555ZM98.8575 43.5961C98.0541 43.5961 97.2031 43.1683 97.2031 42.297V35.2065H94.5575V42.3434C94.5575 44.6971 96.6453 46.0572 98.8575 46.0572C101.086 46.0572 103.174 44.6971 103.174 42.3434V35.2065H100.497V42.297C100.497 43.1683 99.6621 43.5961 98.8575 43.5961ZM107.011 37.6519V45.9045H109.749V37.6519H112.393V35.2065H104.349V37.6507H107.011V37.6519ZM93.4135 40.5702C93.4135 33.1731 82.3059 33.1731 82.3059 40.5702C82.3059 47.9821 93.4135 47.9821 93.4135 40.5702ZM85.1529 40.5702C85.1529 36.7195 90.5823 36.7195 90.5823 40.5702C90.5823 44.4515 85.1529 44.4515 85.1529 40.5702Z" fill="#C9C9CD"/>
</g>
</g>
<defs>
<clipPath id="clip0_1173_800">
<rect width="135" height="48" fill="white"/>
</clipPath>
<clipPath id="clip1_1173_800">
<rect width="109.763" height="43" fill="white" transform="translate(13.0002 3)"/>
</clipPath>
</defs>
</svg>
