<svg width="135" height="48" viewBox="0 0 135 48" fill="none" xmlns="http://www.w3.org/2000/svg">
<g clip-path="url(#clip0_1173_809)">
<g clip-path="url(#clip1_1173_809)">
<mask id="mask0_1173_809" style="mask-type:luminance" maskUnits="userSpaceOnUse" x="0" y="13" width="135" height="22">
<path d="M134.192 13H0V34.9512H134.192V13Z" fill="white"/>
</mask>
<g mask="url(#mask0_1173_809)">
<path d="M8.0557 23.0771C9.47455 23.0321 10.7475 23.9435 11.162 25.3012H15.6372C15.2106 21.6213 12.2161 19.0886 8.02464 19.0886C3.17673 19.0886 0.0683594 22.5387 0.0683594 26.9869C0.0683594 31.4351 3.20573 34.8852 8.05364 34.8852C12.1954 34.8852 15.1235 32.4001 15.6102 28.8403H11.1061C10.7354 30.0373 9.56744 30.8926 8.0847 30.8926C5.94549 30.8926 4.54765 29.1821 4.54765 26.9869C4.54765 24.7918 5.8875 23.0771 8.0557 23.0771ZM22.4752 29.2628V13.1245H18.0559V29.7764C18.0559 32.7129 19.7375 34.5104 22.7588 34.5104H24.2706V30.6316H23.7301C22.9307 30.6316 22.4752 30.176 22.4752 29.2628ZM33.8318 19.0845C28.957 19.0845 25.7057 22.5345 25.7057 26.9828C25.7057 31.431 28.9839 34.881 33.8028 34.881C38.6218 34.881 41.9289 31.431 41.9289 26.9828C41.9289 22.5345 38.6507 19.0845 33.8318 19.0845ZM30.183 26.9828C30.183 24.6737 31.7216 23.0771 33.8028 23.0771C35.884 23.0771 37.4538 24.7007 37.4538 26.9828C37.4538 29.2648 35.913 30.8884 33.8028 30.8884C31.7319 30.8884 30.183 29.2918 30.183 26.9828ZM53.6666 27.8961C53.6666 29.4927 52.6311 30.7745 51.1008 30.7745C49.5704 30.7745 48.6758 29.6914 48.6758 28.1238V19.4614H44.2565V29.4988C44.2565 32.6342 46.3108 34.8831 49.6408 34.8831C51.6662 34.8831 53.093 33.8477 53.6624 32.8578H53.8903V34.5146H58.0817V19.4614H53.6666V27.8961ZM71.94 21.1657H71.7121C71.1986 20.3684 69.8297 19.0948 67.4648 19.0948C63.4142 19.0948 60.6309 22.3461 60.6309 27.078C60.6309 31.81 63.4535 34.8915 67.589 34.8915C70.0741 34.8915 71.3167 33.4936 71.7515 32.8102H71.9793V34.5207H76.3716V13.1245H71.94V21.1657ZM68.5768 30.8988C66.4936 30.8988 65.0978 29.3311 65.0978 26.9931C65.0978 24.6551 66.4936 23.0875 68.5479 23.0875C70.5711 23.0875 72.0269 24.5971 72.0269 26.9931C72.0269 29.2069 70.6871 30.8884 68.5768 30.8884V30.8988ZM85.4566 15.3776H81.2651V18.1443C81.2651 18.9416 80.8364 19.4842 80.0391 19.4842H78.6123V22.9052H81.0353V29.2918C81.0353 32.6051 83.0025 34.5104 86.2828 34.5104H89.3332V30.8511H87.3907C86.0799 30.8511 85.4524 30.1678 85.4524 29.0557V22.9052H89.387V19.4614H85.4524L85.4566 15.3776ZM102.518 21.1657H102.289C101.777 20.3684 100.408 19.0948 98.0412 19.0948C93.9926 19.0948 91.2073 22.3461 91.2073 27.078C91.2073 31.81 94.0175 34.881 98.1593 34.881C100.644 34.881 101.887 33.4832 102.322 32.7998H102.55V34.5104H106.942V19.4614H102.518V21.1657ZM99.1533 30.8988C97.0824 30.8988 95.6742 29.3311 95.6742 26.9931C95.6742 24.6551 97.0721 23.0875 99.1243 23.0875C101.176 23.0875 102.603 24.5971 102.603 26.9931C102.603 29.2069 101.266 30.8884 99.1533 30.8884V30.8988ZM114.679 29.2628V13.1245H110.259V29.7764C110.259 32.7129 111.941 34.5104 114.964 34.5104H116.474V30.6316H115.933C115.141 30.6316 114.679 30.176 114.679 29.2628ZM133.72 19.4552H128.274L123.996 24.5868H123.826V13.1245H119.406V34.5104H123.826V30.4887L125.822 28.2646L129.129 34.5104H134.089L128.872 24.8726L133.72 19.4552Z" fill="#C9C9CD"/>
</g>
</g>
</g>
<defs>
<clipPath id="clip0_1173_809">
<rect width="135" height="48" fill="white"/>
</clipPath>
<clipPath id="clip1_1173_809">
<rect width="135" height="21.9512" fill="white" transform="translate(0 13)"/>
</clipPath>
</defs>
</svg>
