<svg width="24" height="24" viewBox="0 0 24 24" fill="none" xmlns="http://www.w3.org/2000/svg">
<path d="M22.78 21.8H17.966V14.84C17.966 13.018 17.213 11.774 15.557 11.774C14.291 11.774 13.586 12.613 13.258 13.422C13.135 13.712 13.154 14.117 13.154 14.521V21.8H8.38501C8.38501 21.8 8.44601 9.47001 8.38501 8.35001H13.154V10.461C13.436 9.538 14.96 8.22101 17.391 8.22101C20.408 8.22101 22.778 10.156 22.778 14.322V21.8H22.78ZM3.56396 6.66699H3.53302C1.99602 6.66699 1 5.63899 1 4.33499C1 3.00599 2.02602 2 3.59302 2C5.15902 2 6.12201 3.004 6.15302 4.332C6.15302 5.635 5.15996 6.66699 3.56396 6.66699ZM1.54999 8.349H5.79498V21.799H1.54999V8.349Z" fill="white"/>
</svg>
