<svg width="135" height="48" viewBox="0 0 135 48" fill="none" xmlns="http://www.w3.org/2000/svg">
<g clip-path="url(#clip0_1173_835)">
<g clip-path="url(#clip1_1173_835)">
<path d="M36.5713 40.1531C36.2413 40.0329 35.9229 39.9231 35.6104 39.8188L35.3695 39.7394C35.0804 39.6456 34.7972 39.558 34.5239 39.4751C34.5058 39.4692 34.4873 39.4632 34.4693 39.4583C34.1781 39.3721 33.8971 39.2946 33.6229 39.2225C33.5543 39.2043 33.4878 39.1871 33.4193 39.1699C33.1775 39.1073 32.9411 39.0492 32.7127 38.9971L32.6268 38.9767C32.3755 38.92 32.1351 38.8696 31.9013 38.8243C31.8401 38.8121 31.7802 38.8007 31.7212 38.7898C31.528 38.7536 31.3399 38.72 31.1579 38.6906L31.0386 38.6711C30.8324 38.6383 30.6334 38.6107 30.4447 38.5867C30.3834 38.5785 30.3235 38.5712 30.2646 38.5645C30.1245 38.5477 29.9886 38.5332 29.8566 38.5191C29.8039 38.5137 29.7494 38.5078 29.6985 38.5033C29.5409 38.4892 29.3915 38.4778 29.2482 38.4688L29.0442 38.4569C28.9627 38.4529 28.884 38.4488 28.8065 38.4461C28.6264 38.4398 28.4553 38.4352 28.299 38.4334C27.7411 38.4288 27.339 38.4529 27.086 38.4624L27.0098 38.4647C26.9626 38.4647 26.9198 38.4647 26.8852 38.4647C26.2771 38.4727 25.6762 38.3327 25.1334 38.0565C24.9303 37.9417 24.7556 37.7818 24.6229 37.589C24.4458 37.3094 24.3546 36.9836 24.3608 36.6521C24.3598 36.4683 24.372 36.2847 24.3972 36.1029C24.443 35.7823 24.4187 35.4556 24.3261 35.1455C24.2959 35.0518 24.2578 34.9607 24.2122 34.8734C24.1218 34.6994 23.998 34.5452 23.8479 34.42C23.6868 34.2878 23.5013 34.189 23.3021 34.1292C23.2101 34.102 23.1217 34.0628 23.0396 34.0127C22.9571 33.9667 22.8882 33.8997 22.8396 33.8183C22.791 33.7369 22.7645 33.6441 22.7627 33.5492C22.7637 33.4151 22.7972 33.2832 22.8604 33.1651C22.6979 33.149 22.5401 33.1007 22.3961 33.0232C22.2954 32.9675 22.2149 32.881 22.1663 32.7761C22.1177 32.6712 22.1036 32.5535 22.1259 32.44C22.1452 32.3065 22.1837 32.1766 22.2403 32.0545C22.2966 31.9372 22.3392 31.8138 22.3673 31.6867C22.43 31.3479 22.2602 31.0835 21.4978 30.7606C21.2289 30.6799 20.9887 30.5234 20.8052 30.3098C20.6216 30.096 20.5027 29.8339 20.4622 29.5543C20.4522 29.1926 20.5579 28.8372 20.7634 28.5403C21.324 27.6451 21.3002 26.6497 21.2416 25.486C21.2331 25.32 21.2236 25.1504 21.2155 24.9767C21.1988 24.6307 21.1858 24.2693 21.1889 23.8929C21.1889 23.6883 21.1988 23.4779 21.2119 23.2633C21.2344 22.8995 21.2775 22.5372 21.3412 22.1782C21.4268 21.6894 21.5522 21.2085 21.7162 20.7405C21.799 20.507 21.8927 20.269 22.0003 20.0249V20.0304C22.2179 19.4386 22.4789 18.8639 22.7812 18.3112C22.8875 18.1152 23.0007 17.9177 23.1211 17.7184C25.9886 12.9749 32.7407 7.34693 32.7407 7.34693C32.7052 7.44624 32.6754 7.54012 32.6443 7.6349C31.8631 10.0004 32.3741 11.2629 34.0088 15.9203C35.9936 21.5764 33.8817 25.3386 28.5278 26.2375C22.9815 27.1698 22.7821 29.684 22.7821 29.684C25.4343 27.8102 32.2936 29.4414 34.7247 36.8947C35.1049 38.0428 35.697 39.1084 36.4701 40.0351C36.5024 40.0733 36.5273 40.1014 36.5457 40.1217L36.5542 40.1313L36.575 40.154L36.5772 40.1562L36.5713 40.1531ZM24.3198 21.9337C24.1217 22.0249 23.9393 22.1473 23.7794 22.2965C24.0552 22.3359 24.3064 22.4779 24.4834 22.6946C24.6603 22.9111 24.7503 23.1867 24.7356 23.4668C24.7207 23.7469 24.6023 24.0113 24.4037 24.2079C24.2049 24.4044 23.9403 24.5188 23.6619 24.5287C24.15 24.9368 24.9228 25.1082 25.3676 24.2787C26.3083 22.5215 27.3547 21.775 27.1827 21.5202C27.1233 21.4321 26.9554 21.3963 26.7262 21.3963C25.9015 21.4512 25.0901 21.6324 24.3198 21.9337ZM0 40.1503L0.0211637 40.1277L0.0292689 40.1182C0.0477309 40.0978 0.0742981 40.0701 0.104017 40.0324C0.877621 39.1056 1.47012 38.0398 1.85025 36.891C4.28183 29.4401 11.1407 27.8083 13.7929 29.6804C13.7929 29.6804 13.5938 27.1644 8.04761 26.2338C2.69319 25.3349 0.583128 21.5732 2.56666 15.9172C4.20122 11.2606 4.71276 9.99536 3.9306 7.63172C3.89907 7.53649 3.86935 7.44261 3.83423 7.34375C3.83423 7.34375 10.5863 12.9717 13.4534 17.7153C13.4984 17.7869 13.5353 17.8581 13.5768 17.9298C13.7654 18.254 13.9402 18.5751 14.0923 18.8903C14.2788 19.2763 14.4382 19.6544 14.5755 20.0272V20.0217C14.6829 20.2655 14.7777 20.504 14.8597 20.7374C15.2122 21.7503 15.3906 22.8163 15.3869 23.8897C15.3914 24.4552 15.3599 24.9844 15.3342 25.4832C15.3262 25.6493 15.3185 25.8125 15.3127 25.9717C15.2997 26.2783 15.3026 26.5855 15.3212 26.8918C15.3315 27.0392 15.3472 27.1839 15.3702 27.3258C15.4341 27.7559 15.5845 28.1682 15.8124 28.5376C16.0182 28.8343 16.1238 29.1898 16.1137 29.5516C16.0994 29.7556 16.0313 29.9521 15.9165 30.1208C15.8557 30.2097 15.7852 30.2916 15.7062 30.3647C15.5204 30.5319 15.307 30.6649 15.0757 30.7579C14.4409 31.0273 14.2171 31.2568 14.1964 31.5203C14.1981 31.7059 14.2445 31.8884 14.3315 32.0522C14.3918 32.1601 14.4297 32.2794 14.4429 32.4026C14.4561 32.5258 14.4442 32.6503 14.408 32.7688C14.3602 32.8753 14.2792 32.9636 14.1774 33.02C14.0334 33.0975 13.8757 33.1458 13.7132 33.1619C13.7764 33.28 13.8099 33.4119 13.8109 33.546C13.8102 33.6004 13.8012 33.6544 13.7843 33.7062C13.7405 33.8137 13.6705 33.9085 13.581 33.9819C13.4914 34.0552 13.385 34.1048 13.2714 34.1261C12.9768 34.2118 12.715 34.3858 12.5208 34.6249C12.3674 34.8346 12.2578 35.0735 12.1988 35.327C12.1396 35.5806 12.1321 35.8436 12.1768 36.1002C12.2017 36.2821 12.2138 36.4656 12.2128 36.6493C12.219 36.9808 12.1278 37.3067 11.9508 37.5863C11.8179 37.7791 11.6434 37.939 11.4401 38.0538C10.8974 38.33 10.2965 38.4701 9.6885 38.462C9.65559 38.462 9.61144 38.462 9.56372 38.462L9.48769 38.4597C9.23458 38.4502 8.83337 38.4261 8.27456 38.4307C8.11831 38.4307 7.9472 38.4371 7.76708 38.4433C7.69008 38.4461 7.61083 38.4502 7.52932 38.4542L7.32579 38.466C7.18125 38.4756 7.03086 38.4869 6.87325 38.5005C6.82237 38.505 6.76789 38.5109 6.7152 38.5164C6.58327 38.5295 6.44727 38.544 6.30724 38.5617C6.2469 38.5685 6.18746 38.5763 6.12712 38.584C5.93619 38.608 5.73942 38.6356 5.53363 38.6683L5.41386 38.6878C5.23374 38.7173 5.04371 38.7508 4.85054 38.7871C4.7902 38.798 4.72987 38.8093 4.67043 38.8216C4.43627 38.8669 4.19627 38.9172 3.94546 38.974C3.91754 38.9799 3.88782 38.9876 3.85945 38.9944C3.6307 39.0461 3.39475 39.1046 3.15249 39.1672C3.08495 39.1843 3.0174 39.2016 2.94941 39.2198C2.67473 39.2919 2.39375 39.3694 2.10241 39.4556C2.08485 39.4605 2.06594 39.4664 2.04838 39.4723C1.7746 39.5535 1.49092 39.6429 1.20228 39.7367L0.962269 39.8161C0.647069 39.9204 0.331415 40.0302 0 40.1503ZM9.38991 21.5206C9.21792 21.7754 10.2644 22.5223 11.2051 24.2792C11.649 25.1087 12.4208 24.9382 12.9108 24.5291C12.6324 24.5192 12.3679 24.4048 12.1692 24.2082C11.9706 24.0116 11.8522 23.7471 11.8375 23.4671C11.8228 23.1869 11.9128 22.9114 12.0898 22.6948C12.2668 22.4783 12.518 22.3363 12.7937 22.297C12.6339 22.1478 12.4515 22.0254 12.2533 21.9342C11.4835 21.6332 10.6727 21.4523 9.84881 21.3977C9.61781 21.3968 9.44981 21.4326 9.38991 21.5206Z" fill="#C9C9CD"/>
<path d="M51.583 17.6562H53.7833V28.1578H59.4634V29.9948H51.583V17.6562Z" fill="#C9C9CD"/>
<path d="M74.62 29.9948H72.3003L70.7481 25.8877C70.6116 25.5065 70.4012 25.2407 70.1169 25.0905C69.8327 24.9403 69.463 24.8653 69.0083 24.8653H66.8079V29.9948H64.6245V17.6562H69.827C71.203 17.6562 72.2491 17.9624 72.9655 18.5747C73.6819 19.187 74.0401 20.0651 74.0401 21.2088C74.0401 22.029 73.824 22.728 73.3919 23.3056C72.9712 23.8718 72.3685 24.2761 71.5839 24.5187C72.3003 24.6689 72.8177 25.1772 73.1361 26.0437L74.62 29.9948ZM69.52 23.1324C70.3501 23.1324 70.9641 22.9764 71.3621 22.6645C71.7601 22.3526 71.9591 21.8788 71.9591 21.2434C71.9591 20.6196 71.7601 20.1575 71.3621 19.8571C70.9755 19.5451 70.3615 19.3892 69.52 19.3892H66.7737V23.1324H69.52Z" fill="#C9C9CD"/>
<path d="M90.3322 17.6562V29.9948H88.6947L82.1447 21.3474V29.9948H80.0979V17.6562H81.7353L88.2683 26.2863V17.6562H90.3322Z" fill="#C9C9CD"/>
<path d="M104.318 29.9948L98.671 24.2241V29.9948H96.4707V17.6562H98.671V23.1843L104.095 17.6562H106.739L100.838 23.5829L107.012 29.9948H104.318Z" fill="#C9C9CD"/>
<path d="M111.328 17.6562H119.447V19.4238H113.477V22.8377H119.089V24.6054H113.477V28.2272H119.447V29.9948H111.328V17.6562Z" fill="#C9C9CD"/>
<path d="M130.071 25.1079V29.9948H127.87V25.1079L122.94 17.6562H125.448L128.962 23.2363L132.492 17.6562H135L130.071 25.1079Z" fill="#C9C9CD"/>
</g>
</g>
<defs>
<clipPath id="clip0_1173_835">
<rect width="135" height="48" fill="white"/>
</clipPath>
<clipPath id="clip1_1173_835">
<rect width="135" height="37.5" fill="white" transform="translate(0 5)"/>
</clipPath>
</defs>
</svg>
