<svg width="135" height="48" viewBox="0 0 135 48" fill="none" xmlns="http://www.w3.org/2000/svg">
<g clip-path="url(#clip0_1173_778)">
<path d="M50.9301 18.0322C53.8982 18.0322 55.7154 19.8494 55.7154 22.5147C55.7154 25.1799 53.777 27.0577 50.8089 27.0577H47.7197V31.3584H44.5093V18.0322H50.9301ZM50.5666 24.3924C51.8387 24.3924 52.5655 23.6656 52.5655 22.5752C52.5668 22.3205 52.5145 22.0684 52.4121 21.8351C52.3096 21.6019 52.1592 21.3929 51.9707 21.2215C51.7823 21.0501 51.5598 20.9203 51.318 20.8405C51.0761 20.7606 50.8201 20.7326 50.5666 20.758H47.7197V24.3924H50.5666Z" fill="#C9C9CD"/>
<path d="M65.8919 24.8772V31.3586H62.8632V30.3288C62.0577 31.0249 61.0198 31.3925 59.9557 31.3586C57.7751 31.3586 56.3213 30.0865 56.3213 28.1482C56.3213 26.2098 57.775 24.9984 60.3797 24.9984H62.8632V24.8166C62.8767 24.6302 62.85 24.4431 62.7848 24.2679C62.7195 24.0927 62.6174 23.9336 62.4852 23.8015C62.353 23.6693 62.1939 23.5671 62.0188 23.5019C61.8436 23.4367 61.6565 23.4099 61.47 23.4235C61.0929 23.3695 60.7096 23.4665 60.4035 23.6933C60.0973 23.9201 59.8929 24.2584 59.8345 24.6349L56.8664 24.0292C57.2905 22.1514 58.9865 20.9399 61.3489 20.9399C64.2079 21.0005 65.8919 22.3937 65.8919 24.8772ZM62.9238 27.2396V26.9973H60.8037C60.0163 26.9973 59.5317 27.4213 59.5317 28.027C59.5317 28.6328 60.0768 29.0568 60.9249 29.0568C61.1757 29.0698 61.4266 29.033 61.6631 28.9486C61.8997 28.8641 62.1171 28.7337 62.303 28.5647C62.4888 28.3958 62.6394 28.1917 62.7459 27.9642C62.8525 27.7368 62.9129 27.4905 62.9238 27.2396Z" fill="#C9C9CD"/>
<path d="M74.6751 26.9368L77.522 27.5426C77.2676 28.6573 76.6323 29.6483 75.7256 30.3449C74.8189 31.0415 73.6977 31.4 72.555 31.3587C71.8709 31.3587 71.1935 31.2239 70.5615 30.9621C69.9295 30.7003 69.3552 30.3166 68.8715 29.8329C68.3877 29.3492 68.004 28.7749 67.7422 28.1429C67.4804 27.5109 67.3457 26.8335 67.3457 26.1494C67.3457 25.4653 67.4804 24.7879 67.7422 24.1558C68.004 23.5238 68.3877 22.9495 68.8715 22.4658C69.3552 21.9821 69.9295 21.5984 70.5615 21.3366C71.1935 21.0748 71.8709 20.94 72.555 20.94C73.6876 20.9037 74.7983 21.2567 75.7022 21.9401C76.606 22.6235 77.2483 23.596 77.522 24.6956L74.6145 25.4225C74.5438 24.9292 74.2956 24.4786 73.9165 24.1553C73.5373 23.8319 73.0533 23.6579 72.555 23.6659C72.2328 23.6601 71.9129 23.7213 71.6156 23.8457C71.3183 23.9701 71.0501 24.1549 70.828 24.3884C70.6059 24.6219 70.4347 24.899 70.3253 25.2021C70.216 25.5053 70.1708 25.8278 70.1927 26.1494C70.165 26.4722 70.2062 26.7971 70.3135 27.1028C70.4208 27.4085 70.5917 27.688 70.815 27.9227C71.0383 28.1574 71.3088 28.3421 71.6088 28.4645C71.9087 28.587 72.2312 28.6443 72.555 28.6329C73.0543 28.6566 73.5451 28.4975 73.9354 28.1852C74.3256 27.873 74.5887 27.4291 74.6751 26.9368Z" fill="#C9C9CD"/>
<path d="M86.62 31.3585L83.773 27.7241L82.3193 29.4202V31.3585H79.1694V16.6392H82.2587V25.2406L85.7719 21.3033H89.4063L85.8325 25.4223L90.4361 31.4191H86.62V31.3585Z" fill="#C9C9CD"/>
<path d="M102.236 31.3584H99.7522L97.935 25.7857L96.0572 31.3584H93.5131L90.3027 21.3032H93.3314L94.9063 26.5731L96.7841 21.3032H98.9647L100.843 26.5731L102.417 21.3032H105.446L102.236 31.3584Z" fill="#C9C9CD"/>
<path d="M110.292 18.4563C110.29 18.6914 110.241 18.9238 110.148 19.1398C110.055 19.3558 109.92 19.5512 109.751 19.7147C109.582 19.8781 109.382 20.0063 109.163 20.0919C108.944 20.1774 108.71 20.2185 108.475 20.2129C108.13 20.201 107.797 20.088 107.516 19.8879C107.235 19.6878 107.019 19.4094 106.896 19.0876C106.772 18.7657 106.746 18.4146 106.82 18.0779C106.895 17.7413 107.067 17.434 107.315 17.1943C107.562 16.9547 107.875 16.7933 108.214 16.7303C108.553 16.6673 108.903 16.7054 109.221 16.84C109.538 16.9745 109.809 17.1995 110 17.4869C110.19 17.7743 110.292 18.1115 110.292 18.4563ZM106.9 31.3584V21.3032H109.989V31.3584H106.9Z" fill="#C9C9CD"/>
<path d="M119.62 21.2424L119.499 24.3316H118.954C116.773 24.3316 115.562 25.4825 115.562 27.966V31.2976H112.473V21.2424H115.562V23.1202C115.893 22.5105 116.383 22.0025 116.981 21.6503C117.578 21.2982 118.26 21.1153 118.954 21.1212C119.196 21.1818 119.378 21.1818 119.62 21.2424Z" fill="#C9C9CD"/>
<path d="M130.463 26.9967H123.315C123.38 27.5139 123.631 27.9898 124.021 28.3354C124.411 28.681 124.914 28.8726 125.435 28.8745C125.854 28.9115 126.275 28.8216 126.642 28.6163C127.01 28.4111 127.307 28.1 127.495 27.7236L130.281 28.2687C129.433 30.3282 127.677 31.2974 125.435 31.2974C124.749 31.3171 124.065 31.1953 123.428 30.9397C122.79 30.684 122.212 30.3 121.729 29.8115C121.246 29.3229 120.869 28.7402 120.621 28.0997C120.373 27.4592 120.259 26.7745 120.287 26.0881C120.271 25.3997 120.395 24.7152 120.651 24.0761C120.907 23.437 121.29 22.8564 121.777 22.3695C122.264 21.8826 122.845 21.4995 123.484 21.2432C124.123 20.987 124.807 20.863 125.496 20.8788C128.282 20.8788 130.463 22.8777 130.523 26.0881V26.9967H130.463ZM123.376 25.0462H127.434C127.331 24.6112 127.083 24.2243 126.731 23.9491C126.378 23.6738 125.943 23.5267 125.496 23.5319C125.025 23.5165 124.563 23.6565 124.179 23.9302C123.796 24.2038 123.514 24.5961 123.376 25.0462Z" fill="#C9C9CD"/>
<path d="M33.1821 24.0282V9.3089L20.4011 1.91895L7.68066 9.3089V24.0282L20.4011 31.4182L33.1821 24.0282Z" fill="#C9C9CD"/>
<path d="M26.4585 13.0651L11.4363 11.4902L20.4011 16.4573L26.4585 13.0651Z" fill="#898895"/>
<path d="M7.68066 24.0288L20.4011 31.4188V46.1381L7.68066 38.8087V24.0288Z" fill="#C9C9CD"/>
<path d="M7.68077 24.0288L4.6521 22.3933V7.43164L7.68077 9.30942V24.0288Z" fill="#E6E6E9"/>
<path d="M7.68066 4.88818L20.4011 11.7936V16.4577L7.68066 9.31004V4.88818Z" fill="#E6E6E9"/>
<path d="M33.1821 9.30957L20.4011 16.4572V31.4189L33.1821 24.0289V9.30957Z" fill="#EFEFF1"/>
<path d="M7.68066 9.30957L20.4011 16.4572V31.4189L7.68066 24.0289V9.30957Z" fill="#C9C9CD"/>
<path d="M20.4011 16.457V31.4187L7.68066 24.0287L20.4011 16.457Z" fill="#898895"/>
<path d="M20.4011 16.457L23.4298 18.0925V33.2964L20.4011 31.4187V16.457Z" fill="#E6E6E9"/>
</g>
<defs>
<clipPath id="clip0_1173_778">
<rect width="135" height="48" fill="white"/>
</clipPath>
</defs>
</svg>
