<svg width="135" height="48" viewBox="0 0 135 48" fill="none" xmlns="http://www.w3.org/2000/svg">
<g clip-path="url(#clip0_1173_819)">
<g clip-path="url(#clip1_1173_819)">
<mask id="mask0_1173_819" style="mask-type:luminance" maskUnits="userSpaceOnUse" x="0" y="13" width="136" height="23">
<path d="M135 13.373H0.912598V35.834H135V13.373Z" fill="white"/>
</mask>
<g mask="url(#mask0_1173_819)">
<path d="M27.9613 29.8606C27.9323 29.8147 27.9207 29.76 27.9283 29.7062C27.936 29.6525 27.9624 29.6032 28.0031 29.5672L29.3046 28.3909C29.4096 28.3074 29.5145 28.3074 29.5738 28.3909C30.1821 29.0639 31.2118 29.4824 32.2401 29.4824C33.5861 29.4824 34.3815 28.7475 34.3815 27.9911C34.3815 27.4244 34.0032 27.1297 33.0584 27.0489L32.0086 26.944C30.2656 26.7758 29.3625 25.8308 29.3625 24.4876C29.3625 22.1147 31.2737 20.8536 33.6695 20.8536C35.1392 20.8536 36.4408 21.4202 37.1554 22.0918C37.1908 22.1325 37.2104 22.1847 37.2104 22.2386C37.2104 22.2925 37.1908 22.3446 37.1554 22.3853L36.0006 23.5185C35.9842 23.5406 35.9635 23.5593 35.9398 23.5734C35.9161 23.5875 35.8899 23.5967 35.8626 23.6006C35.8353 23.6045 35.8075 23.6029 35.7809 23.596C35.7542 23.5891 35.7292 23.5769 35.7072 23.5603C35.0301 23.0475 34.2052 22.7676 33.3559 22.7621C32.2428 22.7621 31.5711 23.392 31.5711 24.0852C31.5711 24.5886 31.8404 24.8834 32.9171 24.9883L33.9454 25.0933C35.7934 25.2818 36.6117 26.1848 36.6117 27.5079C36.6117 29.8808 34.8486 31.434 31.9507 31.434C29.9977 31.4354 28.6115 30.6157 27.9613 29.8606ZM38.5431 31.2065C38.5157 31.2095 38.488 31.206 38.4622 31.1961C38.4365 31.1862 38.4134 31.1704 38.395 31.1499C38.3765 31.1294 38.3633 31.1048 38.3563 31.0781C38.3493 31.0514 38.3487 31.0235 38.3546 30.9966L40.0761 21.2964C40.0809 21.2386 40.1074 21.1847 40.1504 21.1458C40.1934 21.1068 40.2496 21.0856 40.3076 21.0865H42.1381C42.1647 21.0837 42.1916 21.0877 42.2163 21.0981C42.2409 21.1084 42.2626 21.1248 42.2794 21.1456C42.2961 21.1665 42.3074 21.1913 42.312 21.2176C42.3167 21.2439 42.3148 21.271 42.3063 21.2964L40.5849 30.9966C40.5634 31.1231 40.5014 31.2065 40.3749 31.2065H38.5431ZM49.4828 31.2065C49.4174 31.21 49.3527 31.191 49.2994 31.1529C49.2462 31.1147 49.2074 31.0597 49.1895 30.9966L47.6968 27.7812H47.6753L45.0723 30.9939C44.9457 31.1406 44.8623 31.2038 44.7155 31.2038H42.6576C42.4894 31.2038 42.4476 31.0989 42.5311 30.9939L46.7304 25.9332L44.5042 21.2924C44.4626 21.1874 44.5042 21.0824 44.6724 21.0824H46.6039C46.6699 21.0741 46.7368 21.0881 46.7939 21.1223C46.851 21.1564 46.895 21.2087 46.9189 21.2709L48.1948 24.1068H48.2163L50.5044 21.2722C50.5403 21.2152 50.5899 21.1681 50.6487 21.1352C50.7075 21.1023 50.7736 21.0846 50.8409 21.0838H52.8773C53.024 21.0838 53.0657 21.1888 52.9823 21.2937L49.1611 25.9345L51.5341 30.9952C51.5758 31.1003 51.5341 31.2052 51.3456 31.2052L49.4828 31.2065ZM56.6001 31.2483C54.942 31.2483 54.3322 30.6399 54.6688 28.691L55.9703 21.9088C55.9918 21.8254 55.9488 21.7823 55.8653 21.7823H54.689C54.6623 21.785 54.6354 21.781 54.6107 21.7707C54.5861 21.7604 54.5644 21.744 54.5476 21.7231C54.5309 21.7022 54.5197 21.6775 54.515 21.6512C54.5103 21.6248 54.5122 21.5977 54.5207 21.5723L54.5422 21.4674C54.548 21.4062 54.5777 21.3499 54.6249 21.3106C54.672 21.2713 54.7328 21.2521 54.7939 21.2574H55.9703C55.9883 21.259 56.0064 21.2571 56.0236 21.2515C56.0409 21.246 56.0568 21.2371 56.0705 21.2253C56.0841 21.2135 56.0953 21.199 56.1033 21.1828C56.1113 21.1666 56.1159 21.1489 56.117 21.1309L56.6203 18.1914C56.6251 18.1335 56.6517 18.0797 56.6947 18.0407C56.7376 18.0017 56.7938 17.9805 56.8518 17.9814H57.0201C57.0467 17.979 57.0733 17.9832 57.0978 17.9937C57.1223 18.0041 57.1439 18.0205 57.1605 18.0413C57.1772 18.062 57.1884 18.0866 57.1933 18.1128C57.1981 18.139 57.1964 18.166 57.1884 18.1914L56.6849 21.1309C56.6634 21.2143 56.7065 21.2574 56.79 21.2574H58.7846C58.8111 21.255 58.8379 21.2592 58.8624 21.2697C58.8869 21.2801 58.9084 21.2965 58.925 21.3173C58.9416 21.338 58.9529 21.3626 58.9578 21.3888C58.9626 21.415 58.961 21.442 58.9528 21.4674L58.9313 21.5723C58.9256 21.6334 58.8958 21.6898 58.8487 21.7291C58.8016 21.7684 58.7408 21.7875 58.6796 21.7823H56.6836C56.6656 21.7806 56.6474 21.7826 56.6303 21.7882C56.613 21.7937 56.597 21.8026 56.5834 21.8144C56.5697 21.8262 56.5586 21.8407 56.5505 21.8569C56.5426 21.8731 56.5379 21.8908 56.5369 21.9088L55.2556 28.6075C54.9407 30.329 55.3189 30.7288 56.7038 30.7288H57.0403C57.0669 30.726 57.0938 30.73 57.1185 30.7403C57.1431 30.7507 57.1648 30.7671 57.1816 30.7879C57.1983 30.8088 57.2095 30.8335 57.2142 30.8598C57.2189 30.8863 57.217 30.9134 57.2085 30.9387L57.187 31.0437C57.1812 31.1047 57.1515 31.1611 57.1043 31.2005C57.0572 31.2398 56.9965 31.2589 56.9353 31.2536L56.6001 31.2483ZM66.552 31.2065C66.447 31.2065 66.3838 31.1231 66.4053 30.9966L67.4968 25.0327C67.9167 22.5966 67.1819 21.5683 65.2707 21.5683C63.7793 21.5683 62.0997 22.7648 61.7645 24.6761L60.6515 31.0019C60.6467 31.0598 60.62 31.1137 60.5772 31.1526C60.5342 31.1916 60.478 31.2128 60.4199 31.2119H60.2315C60.1265 31.2119 60.0633 31.1285 60.0848 31.0019L62.521 17.1388C62.5257 17.081 62.5523 17.0271 62.5953 16.9882C62.6382 16.9492 62.6945 16.928 62.7524 16.9289H62.9207C62.9472 16.9265 62.9739 16.9307 62.9983 16.9412C63.0229 16.9516 63.0444 16.968 63.0611 16.9887C63.0777 17.0095 63.089 17.0341 63.0938 17.0603C63.0987 17.0865 63.097 17.1135 63.0889 17.1388L62.1024 22.8079H62.1239C62.4715 22.2619 62.9524 21.8134 63.5213 21.5047C64.0902 21.196 64.7285 21.0372 65.3757 21.0434C67.5386 21.0434 68.5467 22.3247 68.0851 24.886L66.9719 30.9966C66.9672 31.0544 66.9406 31.1083 66.8976 31.1473C66.8547 31.1862 66.7985 31.2074 66.7404 31.2065H66.552ZM71.0865 31.2065C71.0599 31.2093 71.033 31.2053 71.0083 31.1949C70.9836 31.1846 70.9619 31.1682 70.9452 31.1474C70.9285 31.1265 70.9172 31.1018 70.9125 31.0754C70.9078 31.049 70.9097 31.0219 70.9183 30.9966L72.5979 21.4633C72.6027 21.4055 72.6293 21.3516 72.6723 21.3127C72.7153 21.2737 72.7714 21.2525 72.8294 21.2534H72.9977C73.0243 21.2506 73.0512 21.2546 73.0759 21.265C73.1006 21.2753 73.1222 21.2917 73.139 21.3125C73.1557 21.3334 73.1669 21.3582 73.1716 21.3845C73.1764 21.4108 73.1744 21.4379 73.166 21.4633L72.9142 22.9277H72.9358C73.1751 22.3558 73.582 21.8698 74.1028 21.5334C74.6237 21.1971 75.234 21.0263 75.8538 21.0434C76.5106 21.0378 77.149 21.2605 77.66 21.6733C77.7233 21.7365 77.7233 21.8415 77.6385 21.9425L77.5334 22.0689C77.4928 22.1044 77.4407 22.1239 77.3868 22.1239C77.3329 22.1239 77.2808 22.1044 77.2401 22.0689C76.8042 21.7415 76.2737 21.5648 75.7286 21.5656C73.8604 21.5656 72.8093 23.5185 72.4741 25.4082L71.4795 30.9939C71.4747 31.0517 71.4481 31.1056 71.4051 31.1446C71.3621 31.1835 71.306 31.2047 71.248 31.2038L71.0865 31.2065ZM78.2199 28.2253C78.2199 26.6721 78.5348 24.886 79.1863 23.5428C79.9629 21.9277 81.3277 21.0447 82.9872 21.0447C84.7302 21.0447 85.9267 22.1215 85.9267 24.2157C85.9213 24.8225 85.861 25.4275 85.7464 26.0234C85.7399 26.0842 85.71 26.1401 85.663 26.1793C85.6161 26.2185 85.5557 26.2379 85.4947 26.2334H79.1082C79.0697 26.2305 79.0314 26.2418 79.0004 26.265C78.9695 26.2883 78.948 26.322 78.94 26.3598C78.8229 26.9753 78.7737 27.6017 78.7932 28.228C78.7932 29.8431 79.5914 30.8943 81.3344 30.8943C82.6803 30.8943 83.7288 30.2429 84.4839 29.403C84.5889 29.298 84.6939 29.2765 84.7773 29.3397L84.9039 29.4447C84.9243 29.4641 84.9403 29.4877 84.9504 29.514C84.9605 29.5403 84.9649 29.5684 84.9627 29.5966C84.9606 29.6246 84.9524 29.6519 84.9384 29.6764C84.9245 29.7008 84.9054 29.722 84.8823 29.7381C84.4457 30.2668 83.897 30.6918 83.2759 30.9823C82.6548 31.2728 81.977 31.4216 81.2913 31.4178C79.2967 31.4138 78.2253 30.2388 78.2253 28.2226L78.2199 28.2253ZM85.107 25.7057C85.125 25.7073 85.1432 25.7053 85.1605 25.6999C85.1777 25.6943 85.1936 25.6854 85.2073 25.6736C85.221 25.6618 85.2322 25.6473 85.2401 25.6311C85.2482 25.6149 85.2528 25.5972 85.2538 25.5792C85.3326 25.1565 85.3749 24.7278 85.3803 24.2979C85.3803 22.4917 84.5189 21.5683 82.9442 21.5683C81.5377 21.5683 80.3868 22.3247 79.6897 23.7514C79.4252 24.336 79.2278 24.9488 79.1015 25.5779C79.08 25.6613 79.123 25.7044 79.2065 25.7044L85.107 25.7057ZM88.0681 28.2253C88.0681 26.6721 88.383 24.886 89.0345 23.5428C89.8111 21.9277 91.1759 21.0447 92.8355 21.0447C94.5784 21.0447 95.7745 22.1215 95.7745 24.2157C95.7669 24.8223 95.7038 25.4268 95.5865 26.022C95.5801 26.0828 95.5502 26.1388 95.5032 26.1779C95.4562 26.2172 95.3959 26.2365 95.3349 26.2319H88.9551C88.9165 26.2291 88.8782 26.2404 88.8473 26.2637C88.8164 26.287 88.7948 26.3207 88.7869 26.3585C88.6698 26.9739 88.6206 27.6004 88.6401 28.2267C88.6401 29.8418 89.4382 30.893 91.1813 30.893C92.5272 30.893 93.5757 30.2415 94.3308 29.4016C94.4357 29.2967 94.5408 29.2752 94.6242 29.3384L94.7507 29.4434C94.7711 29.4627 94.7871 29.4864 94.7973 29.5126C94.8074 29.5389 94.8117 29.5671 94.8096 29.5951C94.8075 29.6233 94.7993 29.6506 94.7853 29.6751C94.7714 29.6995 94.7523 29.7207 94.7292 29.7368C94.2925 30.2654 93.7438 30.6903 93.1227 30.9809C92.5017 31.2713 91.8238 31.4201 91.1382 31.4165C89.1435 31.4138 88.0735 30.2388 88.0735 28.2226L88.0681 28.2253ZM94.9552 25.7057C94.9732 25.7073 94.9914 25.7053 95.0087 25.6999C95.0259 25.6943 95.0418 25.6854 95.0555 25.6736C95.0692 25.6618 95.0804 25.6473 95.0883 25.6311C95.0964 25.6149 95.101 25.5972 95.102 25.5792C95.1807 25.1565 95.223 24.7278 95.2285 24.2979C95.2285 22.4917 94.3671 21.5683 92.7924 21.5683C91.3859 21.5683 90.235 22.3247 89.5379 23.7514C89.2733 24.336 89.0759 24.9488 88.9497 25.5779C88.9282 25.6613 88.9713 25.7044 89.0547 25.7044L94.9552 25.7057ZM97.2432 31.2065C97.2174 31.2071 97.1915 31.2016 97.1676 31.1906C97.1446 31.1796 97.1236 31.1633 97.1073 31.143C97.091 31.1228 97.0795 31.099 97.0738 31.0735C97.069 31.0482 97.069 31.0218 97.0747 30.9966L97.3265 29.5685C97.3486 29.4928 97.384 29.4217 97.4319 29.3586L103.422 23.0623V23.0205H98.9485C98.9226 23.0229 98.8958 23.0187 98.8709 23.0083C98.846 22.9979 98.825 22.9815 98.8087 22.9607C98.7914 22.9399 98.78 22.9153 98.7752 22.8891C98.7704 22.863 98.7723 22.836 98.7799 22.8106L99.05 21.2991C99.0547 21.2413 99.0806 21.1874 99.1237 21.1484C99.1668 21.1095 99.2233 21.0883 99.2807 21.0891H106.299C106.326 21.0864 106.352 21.0904 106.377 21.1008C106.401 21.1111 106.423 21.1274 106.44 21.1483C106.457 21.1692 106.468 21.194 106.473 21.2203C106.478 21.2466 106.476 21.2737 106.467 21.2991L106.198 22.8106C106.185 22.896 106.148 22.9761 106.093 23.0421L100.188 29.2092V29.2536H104.849C104.876 29.2512 104.903 29.2554 104.927 29.2659C104.952 29.2763 104.973 29.2927 104.99 29.3135C105.006 29.3342 105.018 29.3588 105.023 29.385C105.027 29.4112 105.025 29.4382 105.018 29.4636L104.766 30.9966C104.761 31.0544 104.734 31.1083 104.691 31.1473C104.648 31.1862 104.593 31.2074 104.534 31.2065H97.2432ZM107.49 27.7636C107.49 26.5671 107.759 24.6976 108.308 23.5913C109.148 21.8698 110.577 20.8617 112.781 20.8617C114.8 20.8617 116.329 22.1 116.329 24.411C116.329 24.9574 116.266 25.5657 116.06 26.6573C116.05 26.7168 116.02 26.7709 115.973 26.8095C115.927 26.8481 115.868 26.8686 115.808 26.8673H109.805C109.787 26.8656 109.769 26.8676 109.751 26.8731C109.734 26.8786 109.719 26.8876 109.704 26.8994C109.691 26.9111 109.68 26.9256 109.672 26.9419C109.664 26.958 109.659 26.9757 109.658 26.9938C109.624 27.1309 109.61 27.2724 109.616 27.4137C109.616 28.9252 110.31 29.4716 111.57 29.4716C112.536 29.4716 113.481 28.9884 114.09 28.4218C114.109 28.3993 114.133 28.3812 114.16 28.3688C114.187 28.3564 114.217 28.35 114.247 28.35C114.276 28.35 114.306 28.3564 114.333 28.3688C114.36 28.3812 114.384 28.3993 114.404 28.4218L115.307 29.4083C115.328 29.4317 115.345 29.459 115.354 29.4887C115.365 29.5184 115.37 29.5498 115.368 29.5812C115.365 29.6125 115.357 29.6431 115.343 29.6713C115.329 29.6994 115.309 29.7244 115.285 29.7449C114.189 30.8288 112.712 31.4396 111.169 31.4461C108.734 31.4354 107.494 30.0706 107.494 27.761L107.49 27.7636ZM113.957 25.1808C113.996 25.1836 114.034 25.1723 114.065 25.149C114.096 25.1258 114.117 25.0921 114.125 25.0543C114.165 24.8466 114.186 24.6358 114.189 24.4244C114.189 23.2696 113.58 22.7446 112.488 22.7446C112.034 22.7307 111.588 22.8512 111.203 23.0906C110.818 23.3301 110.512 23.678 110.325 24.0906C110.182 24.3993 110.076 24.7237 110.01 25.0569C109.988 25.1404 110.01 25.1835 110.094 25.1835L113.957 25.1808ZM117.883 31.2065C117.856 31.2095 117.828 31.206 117.803 31.1961C117.777 31.1862 117.754 31.1704 117.735 31.1499C117.716 31.1294 117.704 31.1048 117.696 31.0781C117.69 31.0514 117.689 31.0235 117.695 30.9966L119.417 21.2964C119.422 21.2386 119.447 21.1847 119.49 21.1458C119.534 21.1068 119.59 21.0856 119.647 21.0865H121.474C121.501 21.0837 121.528 21.0877 121.553 21.0981C121.577 21.1084 121.599 21.1248 121.615 21.1456C121.632 21.1665 121.644 21.1913 121.649 21.2176C121.653 21.2439 121.65 21.271 121.643 21.2964L121.454 22.1995H121.475C121.791 21.7793 122.2 21.4386 122.67 21.2049C123.141 20.9712 123.659 20.8509 124.185 20.8536C125.003 20.8536 125.697 21.147 126.096 21.6719C126.131 21.7126 126.151 21.7647 126.151 21.8186C126.151 21.8726 126.131 21.9247 126.096 21.9654L124.858 23.2669C124.753 23.3718 124.669 23.3934 124.565 23.3085C124.186 22.995 123.71 22.824 123.219 22.8254C121.917 22.8254 121.182 23.8335 120.887 25.4917L119.921 30.9925C119.899 31.119 119.838 31.2025 119.711 31.2025L117.883 31.2065ZM125.99 27.9076C125.99 26.6694 126.368 24.6114 126.932 23.4769C127.836 21.6289 129.368 20.8523 131.405 20.8523C133.631 20.8523 134.995 22.1753 134.995 24.3799C134.995 25.6182 134.617 27.6761 134.053 28.8108C133.13 30.6588 131.618 31.4354 129.581 31.4354C127.357 31.4354 125.99 30.1123 125.99 27.9076ZM131.996 28.0759C132.399 27.2575 132.73 25.4729 132.73 24.711C132.73 23.5145 132.269 22.8268 131.092 22.8268C130.126 22.8268 129.435 23.3301 128.992 24.2333C128.589 25.0314 128.258 26.8161 128.258 27.5712C128.258 28.7677 128.719 29.4555 129.896 29.4555C130.863 29.4609 131.556 28.9575 131.999 28.0759H131.996Z" fill="#C9C9CD"/>
<path d="M40.6418 18.8239C40.6152 18.8267 40.5883 18.8227 40.5636 18.8123C40.539 18.802 40.5172 18.7856 40.5005 18.7648C40.4837 18.7439 40.4725 18.7191 40.4678 18.6928C40.4631 18.6664 40.4651 18.6393 40.4736 18.614L40.81 16.8708C40.8148 16.8129 40.8414 16.7591 40.8844 16.7201C40.9274 16.6811 40.9835 16.6599 41.0415 16.6608H42.8682C42.8948 16.6584 42.9215 16.6627 42.9459 16.6731C42.9704 16.6835 42.9919 16.6999 43.0086 16.7207C43.0253 16.7415 43.0366 16.7661 43.0414 16.7922C43.0462 16.8184 43.0446 16.8454 43.0365 16.8708L42.7201 18.618C42.7153 18.6758 42.6888 18.7297 42.6458 18.7687C42.6028 18.8077 42.5466 18.8289 42.4886 18.828L40.6418 18.8239Z" fill="#C9C9CD"/>
<path d="M17.4316 14.2475C17.2932 14.0252 17.1696 13.7941 17.0614 13.5557C17.0483 13.5182 17.0276 13.4836 17.0008 13.4543C16.974 13.4249 16.9415 13.4013 16.9053 13.3848C16.8637 13.3766 16.8208 13.377 16.7794 13.386C16.7379 13.395 16.6988 13.4125 16.6644 13.4373C14.9726 14.37 13.5822 15.1668 12.2874 15.9434C10.5013 17.0202 8.16884 18.4616 5.96151 20.136C4.50117 21.2477 3.42846 22.2787 2.58859 23.3797C0.995009 25.47 0.534698 27.7997 1.22113 30.3031C2.1229 33.5833 5.24413 35.835 8.70318 35.835C9.01807 35.8347 9.33267 35.8158 9.64535 35.7784L9.81759 35.7461C9.97107 35.7179 10.1797 35.6788 10.3842 35.629C11.5158 35.3545 12.5702 34.8265 13.4677 34.0849C14.3652 33.3431 15.0824 32.4072 15.5652 31.3476C16.048 30.2881 16.2837 29.1328 16.2544 27.9688C16.2252 26.8048 15.9318 25.6627 15.3965 24.6287C15.3836 24.5933 15.3634 24.561 15.3372 24.5339C15.311 24.5067 15.2793 24.4854 15.2444 24.4712C15.2081 24.4654 15.171 24.467 15.1353 24.476C15.0997 24.485 15.0663 24.5013 15.0371 24.5237C14.8231 24.6583 14.5863 24.7848 14.3319 24.9127C14.2988 24.9255 14.2686 24.9447 14.2429 24.9691C14.2174 24.9936 14.1968 25.0229 14.1825 25.0554C14.169 25.1243 14.183 25.1958 14.2215 25.2546C14.7777 26.3308 15.0151 27.5434 14.9057 28.7499C14.7962 29.9564 14.3445 31.1064 13.6037 32.065C12.7936 33.1079 11.6784 33.8721 10.4135 34.2515C9.14854 34.6307 7.79683 34.6061 6.54653 34.1811C5.29623 33.756 4.20961 32.9516 3.43794 31.88C2.66629 30.8083 2.248 29.5227 2.24135 28.2022C2.23957 26.7693 2.7129 25.3762 3.58728 24.2411C4.56097 22.9763 5.71719 21.8631 7.01807 20.9382C8.5309 19.8358 10.1473 18.8331 11.7113 17.8641L11.8837 17.7577C13.523 16.7402 15.2983 15.7132 17.3145 14.6177C17.3979 14.5719 17.4572 14.5261 17.476 14.4561C17.4832 14.4202 17.4829 14.3831 17.4753 14.3472C17.4677 14.3114 17.4528 14.2774 17.4316 14.2475Z" fill="#C9C9CD"/>
<path d="M16.7936 17.1114C16.7812 17.0764 16.7618 17.0443 16.7365 17.017C16.7113 16.9897 16.6809 16.9678 16.647 16.9526C16.6094 16.946 16.5709 16.9469 16.5338 16.9552C16.4966 16.9635 16.4614 16.9791 16.4303 17.0011C14.2149 18.2218 12.0385 19.5206 9.96303 20.8625C9.68125 21.042 9.39775 21.2215 9.11242 21.4009L8.54712 21.7616L8.74767 21.7805C9.22845 21.8196 9.70519 21.8984 10.173 22.016C10.2168 22.0284 10.2621 22.0347 10.3076 22.0349C10.3979 22.033 10.4861 22.0075 10.5633 21.9608C11.4072 21.4776 12.2565 20.9729 13.0775 20.4803C14.3979 19.6956 15.7627 18.8854 17.1342 18.1451C17.1603 18.1344 17.1838 18.1185 17.2034 18.0983C17.2231 18.0782 17.2385 18.0543 17.2486 18.028C17.2546 17.9988 17.2544 17.9686 17.2481 17.9394C17.2418 17.9102 17.2297 17.8827 17.2122 17.8584C17.0589 17.6161 16.9202 17.3685 16.7936 17.1114Z" fill="#C9C9CD"/>
<path d="M16.9342 21.3831C16.7996 21.1435 16.6649 20.8972 16.5385 20.6482C16.5261 20.6179 16.5079 20.5904 16.4847 20.5673C16.4617 20.5441 16.4341 20.5259 16.4038 20.5136C16.3703 20.5073 16.3359 20.5079 16.3025 20.5153C16.2692 20.5227 16.2377 20.5368 16.21 20.5566C15.6029 20.9093 14.9824 21.2606 14.382 21.6012L12.1233 22.8773L12.2108 22.9406C12.5237 23.1625 12.817 23.4112 13.0871 23.6836C13.1014 23.6999 13.119 23.7131 13.1388 23.7224C13.1584 23.7316 13.1797 23.7368 13.2015 23.7375C13.2461 23.7341 13.2891 23.7198 13.3267 23.6957L13.8301 23.4158C14.8513 22.8459 15.8735 22.277 16.8965 21.7089C16.9208 21.6978 16.9426 21.682 16.9606 21.6623C16.9786 21.6427 16.9926 21.6196 17.0015 21.5945C17.0067 21.5669 17.0061 21.5386 16.9999 21.5113C16.9935 21.484 16.9818 21.4582 16.9652 21.4356L16.9342 21.3831Z" fill="#C9C9CD"/>
</g>
</g>
</g>
<defs>
<clipPath id="clip0_1173_819">
<rect width="135" height="48" fill="white"/>
</clipPath>
<clipPath id="clip1_1173_819">
<rect width="135" height="23.9362" fill="white" transform="translate(0 12.4683)"/>
</clipPath>
</defs>
</svg>
