<svg width="24" height="24" viewBox="0 0 24 24" fill="none" xmlns="http://www.w3.org/2000/svg">
<path d="M19.9046 20.8378C19.6346 21.5108 18.8706 21.8378 18.1976 21.5678C18.1436 21.5458 18.0906 21.5208 18.0406 21.4918L12.9886 17.5658L9.74558 20.5578C9.59258 20.6708 9.39258 20.6978 9.21558 20.6298L9.83758 15.0678L9.85758 15.0838L9.87058 14.9738C9.87058 14.9738 18.9626 6.69685 19.3326 6.34385C19.7076 5.99185 19.5836 5.91585 19.5836 5.91585C19.6046 5.48685 18.9106 5.91585 18.9106 5.91585L6.86458 13.6658L1.84758 11.9568C1.84758 11.9568 1.07658 11.6808 1.00458 11.0728C0.926576 10.4708 1.87158 10.1428 1.87158 10.1428L21.8176 2.21885C21.8176 2.21885 23.4576 1.48785 23.4576 2.69785L19.9046 20.8378Z" fill="white"/>
</svg>
