<svg width="24" height="24" viewBox="0 0 24 24" fill="none" xmlns="http://www.w3.org/2000/svg">
<path d="M23.253 4.29401C22.399 4.68301 21.479 4.946 20.514 5.064C21.499 4.459 22.256 3.501 22.612 2.358C21.689 2.918 20.67 3.32501 19.581 3.54401C18.713 2.59401 17.472 2 16.099 2C13.466 2 11.33 4.19 11.33 6.892C11.33 7.275 11.371 7.648 11.453 8.006C7.488 7.802 3.97299 5.85601 1.61899 2.89301C1.20799 3.61801 0.972992 4.459 0.972992 5.355C0.972992 7.051 1.815 8.549 3.095 9.427C2.314 9.403 1.57701 9.181 0.933014 8.817V8.877C0.933014 11.248 2.57799 13.226 4.76199 13.674C4.36199 13.789 3.94 13.846 3.505 13.846C3.198 13.846 2.89799 13.817 2.60699 13.759C3.21399 15.702 4.97499 17.117 7.06299 17.155C5.43099 18.468 3.372 19.25 1.138 19.25C0.753 19.25 0.372 19.228 0 19.183C2.112 20.569 4.61999 21.379 7.31299 21.379C16.089 21.379 20.887 13.926 20.887 7.461C20.887 7.248 20.883 7.035 20.875 6.827C21.806 6.136 22.616 5.27501 23.253 4.29401Z" fill="white"/>
</svg>
