<svg width="24" height="24" viewBox="0 0 24 24" fill="none" xmlns="http://www.w3.org/2000/svg">
<path d="M9.319 15.384L9.31799 8.73901L15.663 12.073L9.319 15.384ZM23.251 7.58701C23.251 7.58701 23.021 5.95702 22.317 5.24002C21.424 4.29802 20.423 4.29301 19.964 4.23901C16.678 4.00001 11.748 4 11.748 4H11.738C11.738 4 6.808 4.00001 3.522 4.23901C3.063 4.29401 2.062 4.29802 1.168 5.24002C0.463999 5.95802 0.234985 7.58701 0.234985 7.58701C0.234985 7.58701 0 9.50101 0 11.415V13.21C0 15.124 0.234985 17.038 0.234985 17.038C0.234985 17.038 0.463999 18.668 1.168 19.385C2.062 20.327 3.235 20.298 3.758 20.396C5.637 20.578 11.743 20.634 11.743 20.634C11.743 20.634 16.678 20.627 19.964 20.387C20.423 20.332 21.424 20.327 22.317 19.385C23.021 18.667 23.251 17.038 23.251 17.038C23.251 17.038 23.486 15.124 23.486 13.21V11.415C23.486 9.50101 23.251 7.58701 23.251 7.58701Z" fill="white"/>
</svg>
